%TF.GenerationSoftware,KiCad,Pcbnew,9.0.2*%
%TF.CreationDate,2025-12-22T10:44:41+07:00*%
%TF.ProjectId,HardwareElday,48617264-7761-4726-9545-6c6461792e6b,rev?*%
%TF.SameCoordinates,Original*%
%TF.FileFunction,Copper,L2,Bot*%
%TF.FilePolarity,Positive*%
%FSLAX46Y46*%
G04 Gerber Fmt 4.6, Leading zero omitted, Abs format (unit mm)*
G04 Created by KiCad (PCBNEW 9.0.2) date 2025-12-22 10:44:41*
%MOMM*%
%LPD*%
G01*
G04 APERTURE LIST*
G04 Aperture macros list*
%AMRoundRect*
0 Rectangle with rounded corners*
0 $1 Rounding radius*
0 $2 $3 $4 $5 $6 $7 $8 $9 X,Y pos of 4 corners*
0 Add a 4 corners polygon primitive as box body*
4,1,4,$2,$3,$4,$5,$6,$7,$8,$9,$2,$3,0*
0 Add four circle primitives for the rounded corners*
1,1,$1+$1,$2,$3*
1,1,$1+$1,$4,$5*
1,1,$1+$1,$6,$7*
1,1,$1+$1,$8,$9*
0 Add four rect primitives between the rounded corners*
20,1,$1+$1,$2,$3,$4,$5,0*
20,1,$1+$1,$4,$5,$6,$7,0*
20,1,$1+$1,$6,$7,$8,$9,0*
20,1,$1+$1,$8,$9,$2,$3,0*%
G04 Aperture macros list end*
%ADD10C,0.360000*%
%TA.AperFunction,NonConductor*%
%ADD11C,0.360000*%
%TD*%
%ADD12C,0.400000*%
%TA.AperFunction,NonConductor*%
%ADD13C,0.400000*%
%TD*%
%TA.AperFunction,ComponentPad*%
%ADD14RoundRect,0.250000X-0.725000X0.600000X-0.725000X-0.600000X0.725000X-0.600000X0.725000X0.600000X0*%
%TD*%
%TA.AperFunction,ComponentPad*%
%ADD15O,1.950000X1.700000*%
%TD*%
%TA.AperFunction,ComponentPad*%
%ADD16R,1.500000X1.500000*%
%TD*%
%TA.AperFunction,ComponentPad*%
%ADD17C,1.500000*%
%TD*%
%TA.AperFunction,ComponentPad*%
%ADD18C,1.600000*%
%TD*%
%TA.AperFunction,ComponentPad*%
%ADD19C,3.000000*%
%TD*%
%TA.AperFunction,ComponentPad*%
%ADD20R,2.000000X1.905000*%
%TD*%
%TA.AperFunction,ComponentPad*%
%ADD21O,2.000000X1.905000*%
%TD*%
%TA.AperFunction,ComponentPad*%
%ADD22RoundRect,0.250000X-0.550000X-0.550000X0.550000X-0.550000X0.550000X0.550000X-0.550000X0.550000X0*%
%TD*%
%TA.AperFunction,ComponentPad*%
%ADD23C,2.400000*%
%TD*%
%TA.AperFunction,Conductor*%
%ADD24C,1.000000*%
%TD*%
%TA.AperFunction,Conductor*%
%ADD25C,1.200000*%
%TD*%
G04 APERTURE END LIST*
D10*
D11*
X70854192Y-121467243D02*
X70254192Y-123267243D01*
X70254192Y-123267243D02*
X69654192Y-121467243D01*
X68282764Y-122067243D02*
X68282764Y-123524386D01*
X68282764Y-123524386D02*
X68368478Y-123695814D01*
X68368478Y-123695814D02*
X68454192Y-123781529D01*
X68454192Y-123781529D02*
X68625621Y-123867243D01*
X68625621Y-123867243D02*
X68882764Y-123867243D01*
X68882764Y-123867243D02*
X69054192Y-123781529D01*
X68282764Y-123181529D02*
X68454192Y-123267243D01*
X68454192Y-123267243D02*
X68797049Y-123267243D01*
X68797049Y-123267243D02*
X68968478Y-123181529D01*
X68968478Y-123181529D02*
X69054192Y-123095814D01*
X69054192Y-123095814D02*
X69139906Y-122924386D01*
X69139906Y-122924386D02*
X69139906Y-122410100D01*
X69139906Y-122410100D02*
X69054192Y-122238671D01*
X69054192Y-122238671D02*
X68968478Y-122152957D01*
X68968478Y-122152957D02*
X68797049Y-122067243D01*
X68797049Y-122067243D02*
X68454192Y-122067243D01*
X68454192Y-122067243D02*
X68282764Y-122152957D01*
D10*
D11*
X70899363Y-105478407D02*
X70299363Y-107278407D01*
X70299363Y-107278407D02*
X69699363Y-105478407D01*
X68327935Y-106078407D02*
X68327935Y-107535550D01*
X68327935Y-107535550D02*
X68413649Y-107706978D01*
X68413649Y-107706978D02*
X68499363Y-107792693D01*
X68499363Y-107792693D02*
X68670792Y-107878407D01*
X68670792Y-107878407D02*
X68927935Y-107878407D01*
X68927935Y-107878407D02*
X69099363Y-107792693D01*
X68327935Y-107192693D02*
X68499363Y-107278407D01*
X68499363Y-107278407D02*
X68842220Y-107278407D01*
X68842220Y-107278407D02*
X69013649Y-107192693D01*
X69013649Y-107192693D02*
X69099363Y-107106978D01*
X69099363Y-107106978D02*
X69185077Y-106935550D01*
X69185077Y-106935550D02*
X69185077Y-106421264D01*
X69185077Y-106421264D02*
X69099363Y-106249835D01*
X69099363Y-106249835D02*
X69013649Y-106164121D01*
X69013649Y-106164121D02*
X68842220Y-106078407D01*
X68842220Y-106078407D02*
X68499363Y-106078407D01*
X68499363Y-106078407D02*
X68327935Y-106164121D01*
D10*
D11*
X70854192Y-118967243D02*
X70254192Y-120767243D01*
X70254192Y-120767243D02*
X69654192Y-118967243D01*
X68282764Y-120767243D02*
X68282764Y-118967243D01*
X68282764Y-120681529D02*
X68454192Y-120767243D01*
X68454192Y-120767243D02*
X68797049Y-120767243D01*
X68797049Y-120767243D02*
X68968478Y-120681529D01*
X68968478Y-120681529D02*
X69054192Y-120595814D01*
X69054192Y-120595814D02*
X69139906Y-120424386D01*
X69139906Y-120424386D02*
X69139906Y-119910100D01*
X69139906Y-119910100D02*
X69054192Y-119738671D01*
X69054192Y-119738671D02*
X68968478Y-119652957D01*
X68968478Y-119652957D02*
X68797049Y-119567243D01*
X68797049Y-119567243D02*
X68454192Y-119567243D01*
X68454192Y-119567243D02*
X68282764Y-119652957D01*
X66654193Y-120767243D02*
X66654193Y-118967243D01*
X66654193Y-120681529D02*
X66825621Y-120767243D01*
X66825621Y-120767243D02*
X67168478Y-120767243D01*
X67168478Y-120767243D02*
X67339907Y-120681529D01*
X67339907Y-120681529D02*
X67425621Y-120595814D01*
X67425621Y-120595814D02*
X67511335Y-120424386D01*
X67511335Y-120424386D02*
X67511335Y-119910100D01*
X67511335Y-119910100D02*
X67425621Y-119738671D01*
X67425621Y-119738671D02*
X67339907Y-119652957D01*
X67339907Y-119652957D02*
X67168478Y-119567243D01*
X67168478Y-119567243D02*
X66825621Y-119567243D01*
X66825621Y-119567243D02*
X66654193Y-119652957D01*
D10*
D11*
X70063158Y-124560994D02*
X70063158Y-126018137D01*
X70063158Y-126018137D02*
X70148872Y-126189565D01*
X70148872Y-126189565D02*
X70234586Y-126275280D01*
X70234586Y-126275280D02*
X70406015Y-126360994D01*
X70406015Y-126360994D02*
X70663158Y-126360994D01*
X70663158Y-126360994D02*
X70834586Y-126275280D01*
X70063158Y-125675280D02*
X70234586Y-125760994D01*
X70234586Y-125760994D02*
X70577443Y-125760994D01*
X70577443Y-125760994D02*
X70748872Y-125675280D01*
X70748872Y-125675280D02*
X70834586Y-125589565D01*
X70834586Y-125589565D02*
X70920300Y-125418137D01*
X70920300Y-125418137D02*
X70920300Y-124903851D01*
X70920300Y-124903851D02*
X70834586Y-124732422D01*
X70834586Y-124732422D02*
X70748872Y-124646708D01*
X70748872Y-124646708D02*
X70577443Y-124560994D01*
X70577443Y-124560994D02*
X70234586Y-124560994D01*
X70234586Y-124560994D02*
X70063158Y-124646708D01*
X69206015Y-124560994D02*
X69206015Y-125760994D01*
X69206015Y-124732422D02*
X69120301Y-124646708D01*
X69120301Y-124646708D02*
X68948872Y-124560994D01*
X68948872Y-124560994D02*
X68691729Y-124560994D01*
X68691729Y-124560994D02*
X68520301Y-124646708D01*
X68520301Y-124646708D02*
X68434587Y-124818137D01*
X68434587Y-124818137D02*
X68434587Y-125760994D01*
X66806016Y-125760994D02*
X66806016Y-123960994D01*
X66806016Y-125675280D02*
X66977444Y-125760994D01*
X66977444Y-125760994D02*
X67320301Y-125760994D01*
X67320301Y-125760994D02*
X67491730Y-125675280D01*
X67491730Y-125675280D02*
X67577444Y-125589565D01*
X67577444Y-125589565D02*
X67663158Y-125418137D01*
X67663158Y-125418137D02*
X67663158Y-124903851D01*
X67663158Y-124903851D02*
X67577444Y-124732422D01*
X67577444Y-124732422D02*
X67491730Y-124646708D01*
X67491730Y-124646708D02*
X67320301Y-124560994D01*
X67320301Y-124560994D02*
X66977444Y-124560994D01*
X66977444Y-124560994D02*
X66806016Y-124646708D01*
D10*
D11*
X70854192Y-116467243D02*
X70254192Y-118267243D01*
X70254192Y-118267243D02*
X69654192Y-116467243D01*
X69139906Y-118181529D02*
X68968478Y-118267243D01*
X68968478Y-118267243D02*
X68625621Y-118267243D01*
X68625621Y-118267243D02*
X68454192Y-118181529D01*
X68454192Y-118181529D02*
X68368478Y-118010100D01*
X68368478Y-118010100D02*
X68368478Y-117924386D01*
X68368478Y-117924386D02*
X68454192Y-117752957D01*
X68454192Y-117752957D02*
X68625621Y-117667243D01*
X68625621Y-117667243D02*
X68882764Y-117667243D01*
X68882764Y-117667243D02*
X69054192Y-117581529D01*
X69054192Y-117581529D02*
X69139906Y-117410100D01*
X69139906Y-117410100D02*
X69139906Y-117324386D01*
X69139906Y-117324386D02*
X69054192Y-117152957D01*
X69054192Y-117152957D02*
X68882764Y-117067243D01*
X68882764Y-117067243D02*
X68625621Y-117067243D01*
X68625621Y-117067243D02*
X68454192Y-117152957D01*
D10*
D11*
X70899363Y-102978407D02*
X70299363Y-104778407D01*
X70299363Y-104778407D02*
X69699363Y-102978407D01*
X68327935Y-104778407D02*
X68327935Y-102978407D01*
X68327935Y-104692693D02*
X68499363Y-104778407D01*
X68499363Y-104778407D02*
X68842220Y-104778407D01*
X68842220Y-104778407D02*
X69013649Y-104692693D01*
X69013649Y-104692693D02*
X69099363Y-104606978D01*
X69099363Y-104606978D02*
X69185077Y-104435550D01*
X69185077Y-104435550D02*
X69185077Y-103921264D01*
X69185077Y-103921264D02*
X69099363Y-103749835D01*
X69099363Y-103749835D02*
X69013649Y-103664121D01*
X69013649Y-103664121D02*
X68842220Y-103578407D01*
X68842220Y-103578407D02*
X68499363Y-103578407D01*
X68499363Y-103578407D02*
X68327935Y-103664121D01*
X66699364Y-104778407D02*
X66699364Y-102978407D01*
X66699364Y-104692693D02*
X66870792Y-104778407D01*
X66870792Y-104778407D02*
X67213649Y-104778407D01*
X67213649Y-104778407D02*
X67385078Y-104692693D01*
X67385078Y-104692693D02*
X67470792Y-104606978D01*
X67470792Y-104606978D02*
X67556506Y-104435550D01*
X67556506Y-104435550D02*
X67556506Y-103921264D01*
X67556506Y-103921264D02*
X67470792Y-103749835D01*
X67470792Y-103749835D02*
X67385078Y-103664121D01*
X67385078Y-103664121D02*
X67213649Y-103578407D01*
X67213649Y-103578407D02*
X66870792Y-103578407D01*
X66870792Y-103578407D02*
X66699364Y-103664121D01*
D10*
D11*
X70063158Y-108560994D02*
X70063158Y-110018137D01*
X70063158Y-110018137D02*
X70148872Y-110189565D01*
X70148872Y-110189565D02*
X70234586Y-110275280D01*
X70234586Y-110275280D02*
X70406015Y-110360994D01*
X70406015Y-110360994D02*
X70663158Y-110360994D01*
X70663158Y-110360994D02*
X70834586Y-110275280D01*
X70063158Y-109675280D02*
X70234586Y-109760994D01*
X70234586Y-109760994D02*
X70577443Y-109760994D01*
X70577443Y-109760994D02*
X70748872Y-109675280D01*
X70748872Y-109675280D02*
X70834586Y-109589565D01*
X70834586Y-109589565D02*
X70920300Y-109418137D01*
X70920300Y-109418137D02*
X70920300Y-108903851D01*
X70920300Y-108903851D02*
X70834586Y-108732422D01*
X70834586Y-108732422D02*
X70748872Y-108646708D01*
X70748872Y-108646708D02*
X70577443Y-108560994D01*
X70577443Y-108560994D02*
X70234586Y-108560994D01*
X70234586Y-108560994D02*
X70063158Y-108646708D01*
X69206015Y-108560994D02*
X69206015Y-109760994D01*
X69206015Y-108732422D02*
X69120301Y-108646708D01*
X69120301Y-108646708D02*
X68948872Y-108560994D01*
X68948872Y-108560994D02*
X68691729Y-108560994D01*
X68691729Y-108560994D02*
X68520301Y-108646708D01*
X68520301Y-108646708D02*
X68434587Y-108818137D01*
X68434587Y-108818137D02*
X68434587Y-109760994D01*
X66806016Y-109760994D02*
X66806016Y-107960994D01*
X66806016Y-109675280D02*
X66977444Y-109760994D01*
X66977444Y-109760994D02*
X67320301Y-109760994D01*
X67320301Y-109760994D02*
X67491730Y-109675280D01*
X67491730Y-109675280D02*
X67577444Y-109589565D01*
X67577444Y-109589565D02*
X67663158Y-109418137D01*
X67663158Y-109418137D02*
X67663158Y-108903851D01*
X67663158Y-108903851D02*
X67577444Y-108732422D01*
X67577444Y-108732422D02*
X67491730Y-108646708D01*
X67491730Y-108646708D02*
X67320301Y-108560994D01*
X67320301Y-108560994D02*
X66977444Y-108560994D01*
X66977444Y-108560994D02*
X66806016Y-108646708D01*
D12*
D13*
X130687782Y-98215537D02*
X128787782Y-98215537D01*
X128787782Y-98215537D02*
X128787782Y-98939347D01*
X128787782Y-98939347D02*
X128878258Y-99120299D01*
X128878258Y-99120299D02*
X128968734Y-99210776D01*
X128968734Y-99210776D02*
X129149686Y-99301252D01*
X129149686Y-99301252D02*
X129421115Y-99301252D01*
X129421115Y-99301252D02*
X129602067Y-99210776D01*
X129602067Y-99210776D02*
X129692544Y-99120299D01*
X129692544Y-99120299D02*
X129783020Y-98939347D01*
X129783020Y-98939347D02*
X129783020Y-98215537D01*
X130687782Y-100115537D02*
X129421115Y-100115537D01*
X129783020Y-100115537D02*
X129602067Y-100206014D01*
X129602067Y-100206014D02*
X129511591Y-100296490D01*
X129511591Y-100296490D02*
X129421115Y-100477442D01*
X129421115Y-100477442D02*
X129421115Y-100658395D01*
X130687782Y-101291727D02*
X129421115Y-101291727D01*
X128787782Y-101291727D02*
X128878258Y-101201251D01*
X128878258Y-101201251D02*
X128968734Y-101291727D01*
X128968734Y-101291727D02*
X128878258Y-101382204D01*
X128878258Y-101382204D02*
X128787782Y-101291727D01*
X128787782Y-101291727D02*
X128968734Y-101291727D01*
X130687782Y-102196489D02*
X129421115Y-102196489D01*
X129602067Y-102196489D02*
X129511591Y-102286966D01*
X129511591Y-102286966D02*
X129421115Y-102467918D01*
X129421115Y-102467918D02*
X129421115Y-102739347D01*
X129421115Y-102739347D02*
X129511591Y-102920299D01*
X129511591Y-102920299D02*
X129692544Y-103010775D01*
X129692544Y-103010775D02*
X130687782Y-103010775D01*
X129692544Y-103010775D02*
X129511591Y-103101251D01*
X129511591Y-103101251D02*
X129421115Y-103282204D01*
X129421115Y-103282204D02*
X129421115Y-103553632D01*
X129421115Y-103553632D02*
X129511591Y-103734585D01*
X129511591Y-103734585D02*
X129692544Y-103825061D01*
X129692544Y-103825061D02*
X130687782Y-103825061D01*
X130687782Y-105544108D02*
X129692544Y-105544108D01*
X129692544Y-105544108D02*
X129511591Y-105453632D01*
X129511591Y-105453632D02*
X129421115Y-105272680D01*
X129421115Y-105272680D02*
X129421115Y-104910775D01*
X129421115Y-104910775D02*
X129511591Y-104729822D01*
X130597306Y-105544108D02*
X130687782Y-105363156D01*
X130687782Y-105363156D02*
X130687782Y-104910775D01*
X130687782Y-104910775D02*
X130597306Y-104729822D01*
X130597306Y-104729822D02*
X130416353Y-104639346D01*
X130416353Y-104639346D02*
X130235401Y-104639346D01*
X130235401Y-104639346D02*
X130054448Y-104729822D01*
X130054448Y-104729822D02*
X129963972Y-104910775D01*
X129963972Y-104910775D02*
X129963972Y-105363156D01*
X129963972Y-105363156D02*
X129873496Y-105544108D01*
X130687782Y-107896489D02*
X128787782Y-107896489D01*
X128787782Y-107896489D02*
X130687782Y-108982204D01*
X130687782Y-108982204D02*
X128787782Y-108982204D01*
X130687782Y-110701251D02*
X129692544Y-110701251D01*
X129692544Y-110701251D02*
X129511591Y-110610775D01*
X129511591Y-110610775D02*
X129421115Y-110429823D01*
X129421115Y-110429823D02*
X129421115Y-110067918D01*
X129421115Y-110067918D02*
X129511591Y-109886965D01*
X130597306Y-110701251D02*
X130687782Y-110520299D01*
X130687782Y-110520299D02*
X130687782Y-110067918D01*
X130687782Y-110067918D02*
X130597306Y-109886965D01*
X130597306Y-109886965D02*
X130416353Y-109796489D01*
X130416353Y-109796489D02*
X130235401Y-109796489D01*
X130235401Y-109796489D02*
X130054448Y-109886965D01*
X130054448Y-109886965D02*
X129963972Y-110067918D01*
X129963972Y-110067918D02*
X129963972Y-110520299D01*
X129963972Y-110520299D02*
X129873496Y-110701251D01*
X129421115Y-111334585D02*
X129421115Y-112058394D01*
X130687782Y-111606013D02*
X129059210Y-111606013D01*
X129059210Y-111606013D02*
X128878258Y-111696490D01*
X128878258Y-111696490D02*
X128787782Y-111877442D01*
X128787782Y-111877442D02*
X128787782Y-112058394D01*
X130687782Y-112691727D02*
X129421115Y-112691727D01*
X128787782Y-112691727D02*
X128878258Y-112601251D01*
X128878258Y-112601251D02*
X128968734Y-112691727D01*
X128968734Y-112691727D02*
X128878258Y-112782204D01*
X128878258Y-112782204D02*
X128787782Y-112691727D01*
X128787782Y-112691727D02*
X128968734Y-112691727D01*
X130597306Y-113506013D02*
X130687782Y-113686966D01*
X130687782Y-113686966D02*
X130687782Y-114048870D01*
X130687782Y-114048870D02*
X130597306Y-114229823D01*
X130597306Y-114229823D02*
X130416353Y-114320299D01*
X130416353Y-114320299D02*
X130325877Y-114320299D01*
X130325877Y-114320299D02*
X130144925Y-114229823D01*
X130144925Y-114229823D02*
X130054448Y-114048870D01*
X130054448Y-114048870D02*
X130054448Y-113777442D01*
X130054448Y-113777442D02*
X129963972Y-113596489D01*
X129963972Y-113596489D02*
X129783020Y-113506013D01*
X129783020Y-113506013D02*
X129692544Y-113506013D01*
X129692544Y-113506013D02*
X129511591Y-113596489D01*
X129511591Y-113596489D02*
X129421115Y-113777442D01*
X129421115Y-113777442D02*
X129421115Y-114048870D01*
X129421115Y-114048870D02*
X129511591Y-114229823D01*
X130687782Y-115134584D02*
X129421115Y-115134584D01*
X129602067Y-115134584D02*
X129511591Y-115225061D01*
X129511591Y-115225061D02*
X129421115Y-115406013D01*
X129421115Y-115406013D02*
X129421115Y-115677442D01*
X129421115Y-115677442D02*
X129511591Y-115858394D01*
X129511591Y-115858394D02*
X129692544Y-115948870D01*
X129692544Y-115948870D02*
X130687782Y-115948870D01*
X129692544Y-115948870D02*
X129511591Y-116039346D01*
X129511591Y-116039346D02*
X129421115Y-116220299D01*
X129421115Y-116220299D02*
X129421115Y-116491727D01*
X129421115Y-116491727D02*
X129511591Y-116672680D01*
X129511591Y-116672680D02*
X129692544Y-116763156D01*
X129692544Y-116763156D02*
X130687782Y-116763156D01*
X130687782Y-118482203D02*
X129692544Y-118482203D01*
X129692544Y-118482203D02*
X129511591Y-118391727D01*
X129511591Y-118391727D02*
X129421115Y-118210775D01*
X129421115Y-118210775D02*
X129421115Y-117848870D01*
X129421115Y-117848870D02*
X129511591Y-117667917D01*
X130597306Y-118482203D02*
X130687782Y-118301251D01*
X130687782Y-118301251D02*
X130687782Y-117848870D01*
X130687782Y-117848870D02*
X130597306Y-117667917D01*
X130597306Y-117667917D02*
X130416353Y-117577441D01*
X130416353Y-117577441D02*
X130235401Y-117577441D01*
X130235401Y-117577441D02*
X130054448Y-117667917D01*
X130054448Y-117667917D02*
X129963972Y-117848870D01*
X129963972Y-117848870D02*
X129963972Y-118301251D01*
X129963972Y-118301251D02*
X129873496Y-118482203D01*
X129421115Y-119386965D02*
X130687782Y-119386965D01*
X129602067Y-119386965D02*
X129511591Y-119477442D01*
X129511591Y-119477442D02*
X129421115Y-119658394D01*
X129421115Y-119658394D02*
X129421115Y-119929823D01*
X129421115Y-119929823D02*
X129511591Y-120110775D01*
X129511591Y-120110775D02*
X129692544Y-120201251D01*
X129692544Y-120201251D02*
X130687782Y-120201251D01*
X132027628Y-98125061D02*
X131937152Y-98215537D01*
X131937152Y-98215537D02*
X131846676Y-98396490D01*
X131846676Y-98396490D02*
X131846676Y-98848871D01*
X131846676Y-98848871D02*
X131937152Y-99029823D01*
X131937152Y-99029823D02*
X132027628Y-99120299D01*
X132027628Y-99120299D02*
X132208580Y-99210776D01*
X132208580Y-99210776D02*
X132389533Y-99210776D01*
X132389533Y-99210776D02*
X132660961Y-99120299D01*
X132660961Y-99120299D02*
X133746676Y-98034585D01*
X133746676Y-98034585D02*
X133746676Y-99210776D01*
X132027628Y-99934585D02*
X131937152Y-100025061D01*
X131937152Y-100025061D02*
X131846676Y-100206014D01*
X131846676Y-100206014D02*
X131846676Y-100658395D01*
X131846676Y-100658395D02*
X131937152Y-100839347D01*
X131937152Y-100839347D02*
X132027628Y-100929823D01*
X132027628Y-100929823D02*
X132208580Y-101020300D01*
X132208580Y-101020300D02*
X132389533Y-101020300D01*
X132389533Y-101020300D02*
X132660961Y-100929823D01*
X132660961Y-100929823D02*
X133746676Y-99844109D01*
X133746676Y-99844109D02*
X133746676Y-101020300D01*
X131756200Y-103191728D02*
X134199057Y-101563157D01*
X132480009Y-104639347D02*
X133746676Y-104639347D01*
X131756200Y-104186966D02*
X133113342Y-103734585D01*
X133113342Y-103734585D02*
X133113342Y-104910776D01*
X133746676Y-105725062D02*
X133746676Y-106086966D01*
X133746676Y-106086966D02*
X133656200Y-106267919D01*
X133656200Y-106267919D02*
X133565723Y-106358395D01*
X133565723Y-106358395D02*
X133294295Y-106539347D01*
X133294295Y-106539347D02*
X132932390Y-106629824D01*
X132932390Y-106629824D02*
X132208580Y-106629824D01*
X132208580Y-106629824D02*
X132027628Y-106539347D01*
X132027628Y-106539347D02*
X131937152Y-106448871D01*
X131937152Y-106448871D02*
X131846676Y-106267919D01*
X131846676Y-106267919D02*
X131846676Y-105906014D01*
X131846676Y-105906014D02*
X131937152Y-105725062D01*
X131937152Y-105725062D02*
X132027628Y-105634585D01*
X132027628Y-105634585D02*
X132208580Y-105544109D01*
X132208580Y-105544109D02*
X132660961Y-105544109D01*
X132660961Y-105544109D02*
X132841914Y-105634585D01*
X132841914Y-105634585D02*
X132932390Y-105725062D01*
X132932390Y-105725062D02*
X133022866Y-105906014D01*
X133022866Y-105906014D02*
X133022866Y-106267919D01*
X133022866Y-106267919D02*
X132932390Y-106448871D01*
X132932390Y-106448871D02*
X132841914Y-106539347D01*
X132841914Y-106539347D02*
X132660961Y-106629824D01*
X131846676Y-107263157D02*
X131846676Y-108439348D01*
X131846676Y-108439348D02*
X132570485Y-107806014D01*
X132570485Y-107806014D02*
X132570485Y-108077443D01*
X132570485Y-108077443D02*
X132660961Y-108258395D01*
X132660961Y-108258395D02*
X132751438Y-108348871D01*
X132751438Y-108348871D02*
X132932390Y-108439348D01*
X132932390Y-108439348D02*
X133384771Y-108439348D01*
X133384771Y-108439348D02*
X133565723Y-108348871D01*
X133565723Y-108348871D02*
X133656200Y-108258395D01*
X133656200Y-108258395D02*
X133746676Y-108077443D01*
X133746676Y-108077443D02*
X133746676Y-107534586D01*
X133746676Y-107534586D02*
X133656200Y-107353633D01*
X133656200Y-107353633D02*
X133565723Y-107263157D01*
X132660961Y-109525062D02*
X132570485Y-109344110D01*
X132570485Y-109344110D02*
X132480009Y-109253633D01*
X132480009Y-109253633D02*
X132299057Y-109163157D01*
X132299057Y-109163157D02*
X132208580Y-109163157D01*
X132208580Y-109163157D02*
X132027628Y-109253633D01*
X132027628Y-109253633D02*
X131937152Y-109344110D01*
X131937152Y-109344110D02*
X131846676Y-109525062D01*
X131846676Y-109525062D02*
X131846676Y-109886967D01*
X131846676Y-109886967D02*
X131937152Y-110067919D01*
X131937152Y-110067919D02*
X132027628Y-110158395D01*
X132027628Y-110158395D02*
X132208580Y-110248872D01*
X132208580Y-110248872D02*
X132299057Y-110248872D01*
X132299057Y-110248872D02*
X132480009Y-110158395D01*
X132480009Y-110158395D02*
X132570485Y-110067919D01*
X132570485Y-110067919D02*
X132660961Y-109886967D01*
X132660961Y-109886967D02*
X132660961Y-109525062D01*
X132660961Y-109525062D02*
X132751438Y-109344110D01*
X132751438Y-109344110D02*
X132841914Y-109253633D01*
X132841914Y-109253633D02*
X133022866Y-109163157D01*
X133022866Y-109163157D02*
X133384771Y-109163157D01*
X133384771Y-109163157D02*
X133565723Y-109253633D01*
X133565723Y-109253633D02*
X133656200Y-109344110D01*
X133656200Y-109344110D02*
X133746676Y-109525062D01*
X133746676Y-109525062D02*
X133746676Y-109886967D01*
X133746676Y-109886967D02*
X133656200Y-110067919D01*
X133656200Y-110067919D02*
X133565723Y-110158395D01*
X133565723Y-110158395D02*
X133384771Y-110248872D01*
X133384771Y-110248872D02*
X133022866Y-110248872D01*
X133022866Y-110248872D02*
X132841914Y-110158395D01*
X132841914Y-110158395D02*
X132751438Y-110067919D01*
X132751438Y-110067919D02*
X132660961Y-109886967D01*
X133746676Y-112058396D02*
X133746676Y-110972681D01*
X133746676Y-111515538D02*
X131846676Y-111515538D01*
X131846676Y-111515538D02*
X132118104Y-111334586D01*
X132118104Y-111334586D02*
X132299057Y-111153634D01*
X132299057Y-111153634D02*
X132389533Y-110972681D01*
X131846676Y-112691729D02*
X131846676Y-113958396D01*
X131846676Y-113958396D02*
X133746676Y-113144110D01*
X131756200Y-116039348D02*
X134199057Y-114410777D01*
X131846676Y-116401253D02*
X131846676Y-117486967D01*
X133746676Y-116944110D02*
X131846676Y-116944110D01*
X133746676Y-118120300D02*
X131846676Y-118120300D01*
X133746676Y-119206015D02*
X132660961Y-118391729D01*
X131846676Y-119206015D02*
X132932390Y-118120300D01*
X131756200Y-121377443D02*
X134199057Y-119748872D01*
X131846676Y-122915538D02*
X131846676Y-122010776D01*
X131846676Y-122010776D02*
X132751438Y-121920300D01*
X132751438Y-121920300D02*
X132660961Y-122010776D01*
X132660961Y-122010776D02*
X132570485Y-122191729D01*
X132570485Y-122191729D02*
X132570485Y-122644110D01*
X132570485Y-122644110D02*
X132660961Y-122825062D01*
X132660961Y-122825062D02*
X132751438Y-122915538D01*
X132751438Y-122915538D02*
X132932390Y-123006015D01*
X132932390Y-123006015D02*
X133384771Y-123006015D01*
X133384771Y-123006015D02*
X133565723Y-122915538D01*
X133565723Y-122915538D02*
X133656200Y-122825062D01*
X133656200Y-122825062D02*
X133746676Y-122644110D01*
X133746676Y-122644110D02*
X133746676Y-122191729D01*
X133746676Y-122191729D02*
X133656200Y-122010776D01*
X133656200Y-122010776D02*
X133565723Y-121920300D01*
X132480009Y-124634586D02*
X133746676Y-124634586D01*
X131756200Y-124182205D02*
X133113342Y-123729824D01*
X133113342Y-123729824D02*
X133113342Y-124906015D01*
X133746676Y-126625063D02*
X133746676Y-125539348D01*
X133746676Y-126082205D02*
X131846676Y-126082205D01*
X131846676Y-126082205D02*
X132118104Y-125901253D01*
X132118104Y-125901253D02*
X132299057Y-125720301D01*
X132299057Y-125720301D02*
X132389533Y-125539348D01*
X132027628Y-127348872D02*
X131937152Y-127439348D01*
X131937152Y-127439348D02*
X131846676Y-127620301D01*
X131846676Y-127620301D02*
X131846676Y-128072682D01*
X131846676Y-128072682D02*
X131937152Y-128253634D01*
X131937152Y-128253634D02*
X132027628Y-128344110D01*
X132027628Y-128344110D02*
X132208580Y-128434587D01*
X132208580Y-128434587D02*
X132389533Y-128434587D01*
X132389533Y-128434587D02*
X132660961Y-128344110D01*
X132660961Y-128344110D02*
X133746676Y-127258396D01*
X133746676Y-127258396D02*
X133746676Y-128434587D01*
X133746676Y-130244111D02*
X133746676Y-129158396D01*
X133746676Y-129701253D02*
X131846676Y-129701253D01*
X131846676Y-129701253D02*
X132118104Y-129520301D01*
X132118104Y-129520301D02*
X132299057Y-129339349D01*
X132299057Y-129339349D02*
X132389533Y-129158396D01*
D14*
%TO.P,J3,1,Pin_1*%
%TO.N,Vg*%
X76000000Y-104000000D03*
D15*
%TO.P,J3,2,Pin_2*%
%TO.N,Net-(J3-Pin_2)*%
X76000000Y-106500000D03*
%TO.P,J3,3,Pin_3*%
%TO.N,GNDREF*%
X76000000Y-109000000D03*
%TD*%
D16*
%TO.P,Q4,1,E*%
%TO.N,GNDREF*%
X107500000Y-128080000D03*
D17*
%TO.P,Q4,2,C*%
%TO.N,Net-(Q2-G)*%
X107500000Y-125540000D03*
%TO.P,Q4,3,B*%
%TO.N,Net-(Q3-B)*%
X107500000Y-123000000D03*
%TD*%
D18*
%TO.P,R4,1*%
%TO.N,Net-(J1-Pin_3)*%
X80420000Y-127000000D03*
%TO.P,R4,2*%
%TO.N,Net-(Q3-B)*%
X90580000Y-127000000D03*
%TD*%
D19*
%TO.P,TP4,1,1*%
%TO.N,Net-(Q1-G)*%
X121500000Y-100500000D03*
%TD*%
D20*
%TO.P,Q2,1,G*%
%TO.N,Net-(Q2-G)*%
X112270000Y-122210000D03*
D21*
%TO.P,Q2,2,D*%
%TO.N,Net-(Q2-D)*%
X112270000Y-124750000D03*
%TO.P,Q2,3,S*%
%TO.N,GNDREF*%
X112270000Y-127290000D03*
%TD*%
D20*
%TO.P,Q1,1,G*%
%TO.N,Net-(Q1-G)*%
X99000000Y-103960000D03*
D21*
%TO.P,Q1,2,D*%
%TO.N,Net-(Q1-D)*%
X99000000Y-106500000D03*
%TO.P,Q1,3,S*%
%TO.N,GNDREF*%
X99000000Y-109040000D03*
%TD*%
D22*
%TO.P,C1,1*%
%TO.N,Net-(J3-Pin_2)*%
X85817621Y-112000000D03*
D18*
%TO.P,C1,2*%
%TO.N,GNDREF*%
X88317621Y-112000000D03*
%TD*%
D19*
%TO.P,TP5,1,1*%
%TO.N,Net-(Q3-B)*%
X93500000Y-123500000D03*
%TD*%
D23*
%TO.P,R1,1*%
%TO.N,Net-(J3-Pin_2)*%
X80600000Y-106500000D03*
%TO.P,R1,2*%
%TO.N,Net-(Q1-D)*%
X95840000Y-106500000D03*
%TD*%
D19*
%TO.P,TP3,1,1*%
%TO.N,Net-(Q2-G)*%
X121500000Y-115000000D03*
%TD*%
D23*
%TO.P,R3,1*%
%TO.N,Vs*%
X80880000Y-118000000D03*
%TO.P,R3,2*%
%TO.N,Net-(Q2-D)*%
X96120000Y-118000000D03*
%TD*%
D14*
%TO.P,J1,1,Pin_1*%
%TO.N,Vs*%
X76000000Y-118000000D03*
D15*
%TO.P,J1,2,Pin_2*%
%TO.N,Vd*%
X76000000Y-120500000D03*
%TO.P,J1,3,Pin_3*%
%TO.N,Net-(J1-Pin_3)*%
X76000000Y-123000000D03*
%TO.P,J1,4,Pin_4*%
%TO.N,GNDREF*%
X76000000Y-125500000D03*
%TD*%
D16*
%TO.P,Q3,1,E*%
%TO.N,Net-(Q2-G)*%
X101640000Y-114960000D03*
D17*
%TO.P,Q3,2,C*%
%TO.N,Vd*%
X101640000Y-117500000D03*
%TO.P,Q3,3,B*%
%TO.N,Net-(Q3-B)*%
X101640000Y-120040000D03*
%TD*%
D19*
%TO.P,TP1,1,1*%
%TO.N,Net-(Q1-D)*%
X121500000Y-105500000D03*
%TD*%
%TO.P,TP2,1,1*%
%TO.N,Net-(Q2-D)*%
X121500000Y-110500000D03*
%TD*%
D18*
%TO.P,R2,1*%
%TO.N,Vg*%
X83140000Y-102500000D03*
%TO.P,R2,2*%
%TO.N,Net-(Q1-G)*%
X93300000Y-102500000D03*
%TD*%
D24*
%TO.N,GNDREF*%
X76000000Y-125500000D02*
X74500000Y-125500000D01*
%TO.N,Net-(Q1-G)*%
X121500000Y-100500000D02*
X106500000Y-100500000D01*
X93300000Y-102500000D02*
X97540000Y-102500000D01*
X103040000Y-103960000D02*
X99000000Y-103960000D01*
X106500000Y-100500000D02*
X103040000Y-103960000D01*
X97540000Y-102500000D02*
X99000000Y-103960000D01*
%TO.N,Net-(Q1-D)*%
X119500000Y-103500000D02*
X109500000Y-103500000D01*
X99000000Y-106500000D02*
X95840000Y-106500000D01*
X109500000Y-103500000D02*
X106500000Y-106500000D01*
X121500000Y-105500000D02*
X119500000Y-103500000D01*
X106500000Y-106500000D02*
X99000000Y-106500000D01*
%TO.N,Vd*%
X97750000Y-120500000D02*
X100790000Y-117460000D01*
X101600000Y-117460000D02*
X101640000Y-117500000D01*
X100790000Y-117460000D02*
X101600000Y-117460000D01*
X76000000Y-120500000D02*
X97750000Y-120500000D01*
%TO.N,Net-(Q3-B)*%
X90580000Y-124920000D02*
X90580000Y-127000000D01*
X98180000Y-123500000D02*
X92000000Y-123500000D01*
X107500000Y-123000000D02*
X104500000Y-120000000D01*
X101680000Y-120000000D02*
X101640000Y-120040000D01*
X101640000Y-120040000D02*
X98180000Y-123500000D01*
X92000000Y-123500000D02*
X90580000Y-124920000D01*
X104500000Y-120000000D02*
X101680000Y-120000000D01*
%TO.N,Net-(Q2-G)*%
X101640000Y-114960000D02*
X101680000Y-114920000D01*
X121420000Y-114920000D02*
X121500000Y-115000000D01*
X107709021Y-125540000D02*
X107500000Y-125540000D01*
X117790000Y-122210000D02*
X111039021Y-122210000D01*
X121500000Y-115000000D02*
X121500000Y-118500000D01*
X101680000Y-114920000D02*
X121420000Y-114920000D01*
X111039021Y-122210000D02*
X107709021Y-125540000D01*
X121500000Y-118500000D02*
X117790000Y-122210000D01*
%TO.N,Vg*%
X79000000Y-104000000D02*
X76000000Y-104000000D01*
X80500000Y-102500000D02*
X79000000Y-104000000D01*
X83140000Y-102500000D02*
X80500000Y-102500000D01*
%TO.N,Net-(Q2-D)*%
X125000000Y-120500000D02*
X120750000Y-124750000D01*
X101500000Y-110500000D02*
X121500000Y-110500000D01*
X125000000Y-112000000D02*
X125000000Y-120500000D01*
X120750000Y-124750000D02*
X112270000Y-124750000D01*
X123500000Y-110500000D02*
X125000000Y-112000000D01*
X121500000Y-110500000D02*
X123500000Y-110500000D01*
X96120000Y-118000000D02*
X96120000Y-115880000D01*
X96120000Y-115880000D02*
X101500000Y-110500000D01*
D25*
%TO.N,Vs*%
X80880000Y-118000000D02*
X76000000Y-118000000D01*
D24*
%TO.N,Net-(J3-Pin_2)*%
X80600000Y-106500000D02*
X76000000Y-106500000D01*
X84000000Y-106500000D02*
X85817621Y-108317621D01*
X80600000Y-106500000D02*
X84000000Y-106500000D01*
X85817621Y-108317621D02*
X85817621Y-112000000D01*
D25*
%TO.N,Net-(J1-Pin_3)*%
X78500000Y-123000000D02*
X76000000Y-123000000D01*
X80420000Y-127000000D02*
X80420000Y-124920000D01*
X80420000Y-124920000D02*
X78500000Y-123000000D01*
%TD*%
%TA.AperFunction,Conductor*%
%TO.N,GNDREF*%
G36*
X114104625Y-105020185D02*
G01*
X114150380Y-105072989D01*
X114160324Y-105142147D01*
X114135961Y-105199987D01*
X113993075Y-105386196D01*
X113861958Y-105613299D01*
X113861953Y-105613309D01*
X113761605Y-105855571D01*
X113761602Y-105855581D01*
X113693730Y-106108885D01*
X113659500Y-106368872D01*
X113659500Y-106631127D01*
X113670075Y-106711445D01*
X113693730Y-106891116D01*
X113743267Y-107075992D01*
X113761602Y-107144418D01*
X113761605Y-107144428D01*
X113861953Y-107386690D01*
X113861958Y-107386700D01*
X113993075Y-107613803D01*
X114152718Y-107821851D01*
X114152726Y-107821860D01*
X114338140Y-108007274D01*
X114338148Y-108007281D01*
X114546196Y-108166924D01*
X114773299Y-108298041D01*
X114773309Y-108298046D01*
X115015571Y-108398394D01*
X115015581Y-108398398D01*
X115268884Y-108466270D01*
X115528880Y-108500500D01*
X115528887Y-108500500D01*
X115791113Y-108500500D01*
X115791120Y-108500500D01*
X116051116Y-108466270D01*
X116304419Y-108398398D01*
X116546697Y-108298043D01*
X116773803Y-108166924D01*
X116981851Y-108007282D01*
X116981855Y-108007277D01*
X116981860Y-108007274D01*
X117167274Y-107821860D01*
X117167277Y-107821855D01*
X117167282Y-107821851D01*
X117326924Y-107613803D01*
X117458043Y-107386697D01*
X117466030Y-107367416D01*
X117499574Y-107286433D01*
X117558398Y-107144419D01*
X117626270Y-106891116D01*
X117660500Y-106631120D01*
X117660500Y-106368880D01*
X117626270Y-106108884D01*
X117558398Y-105855581D01*
X117469280Y-105640431D01*
X117458046Y-105613309D01*
X117458041Y-105613299D01*
X117326924Y-105386196D01*
X117184039Y-105199987D01*
X117158844Y-105134818D01*
X117172882Y-105066373D01*
X117221696Y-105016383D01*
X117282414Y-105000500D01*
X118827111Y-105000500D01*
X118856551Y-105009144D01*
X118886538Y-105015668D01*
X118891553Y-105019422D01*
X118894150Y-105020185D01*
X118914792Y-105036819D01*
X118981380Y-105103407D01*
X119014865Y-105164730D01*
X119016919Y-105204971D01*
X118999500Y-105359568D01*
X118999500Y-105640431D01*
X119030942Y-105919494D01*
X119030945Y-105919512D01*
X119093439Y-106193317D01*
X119093443Y-106193329D01*
X119186200Y-106458411D01*
X119308053Y-106711442D01*
X119308055Y-106711445D01*
X119457477Y-106949248D01*
X119632584Y-107168825D01*
X119831175Y-107367416D01*
X120050752Y-107542523D01*
X120288555Y-107691945D01*
X120500000Y-107793771D01*
X120500000Y-108206227D01*
X120288557Y-108308053D01*
X120050753Y-108457476D01*
X119831175Y-108632583D01*
X119632583Y-108831175D01*
X119535581Y-108952813D01*
X119478393Y-108992953D01*
X119438634Y-108999500D01*
X103000000Y-108999500D01*
X103000000Y-108000500D01*
X106618097Y-108000500D01*
X106851368Y-107963553D01*
X107075992Y-107890568D01*
X107286434Y-107783343D01*
X107477510Y-107644517D01*
X110085209Y-105036819D01*
X110146532Y-105003334D01*
X110172890Y-105000500D01*
X114037586Y-105000500D01*
X114104625Y-105020185D01*
G37*
%TD.AperFunction*%
%TD*%
%TA.AperFunction,Conductor*%
%TO.N,GNDREF*%
G36*
X108696487Y-102020185D02*
G01*
X108742242Y-102072989D01*
X108752186Y-102142147D01*
X108723161Y-102205703D01*
X108702333Y-102224818D01*
X108522496Y-102355476D01*
X108522491Y-102355480D01*
X105914792Y-104963181D01*
X105853469Y-104996666D01*
X105827111Y-104999500D01*
X104421889Y-104999500D01*
X104354850Y-104979815D01*
X104309095Y-104927011D01*
X104299151Y-104857853D01*
X104328176Y-104794297D01*
X104334208Y-104787819D01*
X107085208Y-102036819D01*
X107146531Y-102003334D01*
X107172889Y-102000500D01*
X108629448Y-102000500D01*
X108696487Y-102020185D01*
G37*
%TD.AperFunction*%
%TD*%
%TA.AperFunction,Conductor*%
%TO.N,GNDREF*%
G36*
X123418834Y-116719921D02*
G01*
X123474767Y-116761793D01*
X123499184Y-116827257D01*
X123499500Y-116836103D01*
X123499500Y-119827110D01*
X123479815Y-119894149D01*
X123463181Y-119914791D01*
X120164792Y-123213181D01*
X120103469Y-123246666D01*
X120077111Y-123249500D01*
X119171889Y-123249500D01*
X119104850Y-123229815D01*
X119059095Y-123177011D01*
X119049151Y-123107853D01*
X119078176Y-123044297D01*
X119084208Y-123037819D01*
X120835594Y-121286433D01*
X122644517Y-119477510D01*
X122783343Y-119286434D01*
X122890568Y-119075992D01*
X122915422Y-118999500D01*
X122963553Y-118851368D01*
X123000500Y-118618097D01*
X123000500Y-117061365D01*
X123020185Y-116994326D01*
X123047185Y-116964419D01*
X123168825Y-116867416D01*
X123287819Y-116748422D01*
X123349142Y-116714937D01*
X123418834Y-116719921D01*
G37*
%TD.AperFunction*%
%TD*%
%TA.AperFunction,Conductor*%
%TO.N,GNDREF*%
G36*
X119441875Y-116440185D02*
G01*
X119471782Y-116467186D01*
X119632584Y-116668825D01*
X119831175Y-116867416D01*
X119952813Y-116964418D01*
X119992953Y-117021606D01*
X119999500Y-117061365D01*
X119999500Y-117827111D01*
X119979815Y-117894150D01*
X119963181Y-117914792D01*
X117204792Y-120673181D01*
X117143469Y-120706666D01*
X117117111Y-120709500D01*
X114172995Y-120709500D01*
X114105956Y-120689815D01*
X114076893Y-120663861D01*
X113981109Y-120546390D01*
X113823409Y-120417804D01*
X113823410Y-120417804D01*
X113823407Y-120417802D01*
X113643049Y-120323591D01*
X113643048Y-120323590D01*
X113643045Y-120323589D01*
X113525829Y-120290050D01*
X113447418Y-120267614D01*
X113447415Y-120267613D01*
X113447413Y-120267613D01*
X113381102Y-120261717D01*
X113328037Y-120257000D01*
X113328032Y-120257000D01*
X111211971Y-120257000D01*
X111211965Y-120257000D01*
X111211964Y-120257001D01*
X111200316Y-120258036D01*
X111092584Y-120267613D01*
X110896954Y-120323589D01*
X110806772Y-120370696D01*
X110716593Y-120417802D01*
X110716591Y-120417803D01*
X110716590Y-120417804D01*
X110558890Y-120546390D01*
X110430302Y-120704092D01*
X110398321Y-120765316D01*
X110354665Y-120848890D01*
X110306180Y-120899196D01*
X110301054Y-120901961D01*
X110252589Y-120926655D01*
X110061509Y-121065484D01*
X110061508Y-121065485D01*
X109120676Y-122006316D01*
X109059353Y-122039801D01*
X108989661Y-122034817D01*
X108934620Y-121994122D01*
X108818918Y-121843338D01*
X108818911Y-121843330D01*
X108656670Y-121681089D01*
X108656661Y-121681081D01*
X108474617Y-121541392D01*
X108275890Y-121426657D01*
X108275881Y-121426653D01*
X108063887Y-121338842D01*
X107955255Y-121309734D01*
X107899668Y-121277640D01*
X105477512Y-118855485D01*
X105477511Y-118855484D01*
X105286434Y-118716657D01*
X105075996Y-118609433D01*
X104851368Y-118536446D01*
X104618097Y-118499500D01*
X104618092Y-118499500D01*
X103299016Y-118499500D01*
X103231977Y-118479815D01*
X103186222Y-118427011D01*
X103176278Y-118357853D01*
X103191629Y-118313501D01*
X103213338Y-118275898D01*
X103213344Y-118275888D01*
X103301158Y-118063887D01*
X103360548Y-117842238D01*
X103390500Y-117614734D01*
X103390500Y-117385266D01*
X103360548Y-117157762D01*
X103301158Y-116936113D01*
X103213344Y-116724112D01*
X103145441Y-116606500D01*
X103128968Y-116538600D01*
X103151821Y-116472573D01*
X103206742Y-116429382D01*
X103252828Y-116420500D01*
X119374836Y-116420500D01*
X119441875Y-116440185D01*
G37*
%TD.AperFunction*%
%TD*%
%TA.AperFunction,Conductor*%
%TO.N,GNDREF*%
G36*
X120541592Y-107813801D02*
G01*
X120627856Y-107843986D01*
X120739232Y-107882959D01*
X120796008Y-107923681D01*
X120821755Y-107988633D01*
X120808299Y-108057195D01*
X120759911Y-108107598D01*
X120739232Y-108117041D01*
X120541588Y-108186200D01*
X120500000Y-108206227D01*
X120500000Y-107793771D01*
X120541592Y-107813801D01*
G37*
%TD.AperFunction*%
%TA.AperFunction,Conductor*%
G36*
X127521942Y-97020185D02*
G01*
X127567697Y-97072989D01*
X127578903Y-97124500D01*
X127578903Y-123220601D01*
X127559218Y-123287640D01*
X127542584Y-123308282D01*
X127422718Y-123428148D01*
X127263075Y-123636196D01*
X127131958Y-123863299D01*
X127131953Y-123863309D01*
X127031605Y-124105571D01*
X127031602Y-124105581D01*
X126963730Y-124358884D01*
X126960510Y-124383339D01*
X126929500Y-124618872D01*
X126929500Y-124881127D01*
X126951364Y-125047187D01*
X126963730Y-125141116D01*
X126992056Y-125246830D01*
X127031602Y-125394418D01*
X127031605Y-125394428D01*
X127131953Y-125636690D01*
X127131958Y-125636700D01*
X127263075Y-125863803D01*
X127398638Y-126040470D01*
X127422718Y-126071851D01*
X127542585Y-126191718D01*
X127576069Y-126253039D01*
X127578903Y-126279398D01*
X127578903Y-131375500D01*
X127559218Y-131442539D01*
X127506414Y-131488294D01*
X127454903Y-131499500D01*
X66124500Y-131499500D01*
X66057461Y-131479815D01*
X66011706Y-131427011D01*
X66000500Y-131375500D01*
X66000500Y-128877844D01*
X106250000Y-128877844D01*
X106256401Y-128937372D01*
X106256403Y-128937379D01*
X106306645Y-129072086D01*
X106306649Y-129072093D01*
X106392809Y-129187187D01*
X106392812Y-129187190D01*
X106507906Y-129273350D01*
X106507913Y-129273354D01*
X106642620Y-129323596D01*
X106642627Y-129323598D01*
X106702155Y-129329999D01*
X106702172Y-129330000D01*
X107100000Y-129330000D01*
X107900000Y-129330000D01*
X108297828Y-129330000D01*
X108297844Y-129329999D01*
X108357372Y-129323598D01*
X108357379Y-129323596D01*
X108492086Y-129273354D01*
X108492093Y-129273350D01*
X108607187Y-129187190D01*
X108607190Y-129187187D01*
X108693350Y-129072093D01*
X108693354Y-129072086D01*
X108743596Y-128937379D01*
X108743598Y-128937372D01*
X108749999Y-128877844D01*
X108750000Y-128877827D01*
X108750000Y-128480000D01*
X107900000Y-128480000D01*
X107900000Y-129330000D01*
X107100000Y-129330000D01*
X107100000Y-128480000D01*
X106250000Y-128480000D01*
X106250000Y-128877844D01*
X66000500Y-128877844D01*
X66000500Y-127672566D01*
X66020185Y-127605527D01*
X66072989Y-127559772D01*
X66124500Y-127548566D01*
X72107872Y-127548566D01*
X72107872Y-125900000D01*
X74585494Y-125900000D01*
X74623907Y-126018222D01*
X74720379Y-126207557D01*
X74845272Y-126379459D01*
X74845276Y-126379464D01*
X74995535Y-126529723D01*
X74995540Y-126529727D01*
X75167442Y-126654620D01*
X75356782Y-126751095D01*
X75558873Y-126816758D01*
X75599999Y-126823270D01*
X75600000Y-126823270D01*
X76400000Y-126823270D01*
X76441126Y-126816758D01*
X76643217Y-126751095D01*
X76832557Y-126654620D01*
X77004459Y-126529727D01*
X77004464Y-126529723D01*
X77154723Y-126379464D01*
X77154727Y-126379459D01*
X77279620Y-126207557D01*
X77376092Y-126018222D01*
X77414506Y-125900000D01*
X76400000Y-125900000D01*
X76400000Y-126823270D01*
X75600000Y-126823270D01*
X75600000Y-125900000D01*
X74585494Y-125900000D01*
X72107872Y-125900000D01*
X72107872Y-122775494D01*
X72078083Y-122745705D01*
X72044598Y-122684382D01*
X72041764Y-122658024D01*
X72041764Y-117335777D01*
X74024500Y-117335777D01*
X74024500Y-118664208D01*
X74024501Y-118664223D01*
X74034904Y-118796413D01*
X74034905Y-118796420D01*
X74089902Y-119014678D01*
X74089903Y-119014681D01*
X74182991Y-119219622D01*
X74182997Y-119219632D01*
X74298863Y-119386876D01*
X74320860Y-119453193D01*
X74304322Y-119519492D01*
X74211777Y-119679784D01*
X74211773Y-119679794D01*
X74118947Y-119903895D01*
X74056161Y-120138214D01*
X74024500Y-120378711D01*
X74024500Y-120621288D01*
X74054463Y-120848889D01*
X74056162Y-120861789D01*
X74087554Y-120978944D01*
X74118947Y-121096104D01*
X74203874Y-121301135D01*
X74211776Y-121320212D01*
X74333064Y-121530289D01*
X74333066Y-121530292D01*
X74333067Y-121530293D01*
X74443731Y-121674514D01*
X74468925Y-121739683D01*
X74454887Y-121808128D01*
X74443731Y-121825486D01*
X74333067Y-121969706D01*
X74333064Y-121969710D01*
X74333064Y-121969711D01*
X74318970Y-121994122D01*
X74211777Y-122179785D01*
X74211773Y-122179794D01*
X74118947Y-122403895D01*
X74056161Y-122638214D01*
X74024500Y-122878711D01*
X74024500Y-123121288D01*
X74056161Y-123361785D01*
X74118947Y-123596104D01*
X74193416Y-123775888D01*
X74211776Y-123820212D01*
X74333064Y-124030289D01*
X74333066Y-124030292D01*
X74333067Y-124030293D01*
X74480733Y-124222736D01*
X74480739Y-124222743D01*
X74652256Y-124394260D01*
X74652263Y-124394266D01*
X74785905Y-124496813D01*
X74827108Y-124553241D01*
X74831263Y-124622987D01*
X74810737Y-124668074D01*
X74720379Y-124792442D01*
X74623907Y-124981777D01*
X74585494Y-125099999D01*
X74585494Y-125100000D01*
X75742820Y-125100000D01*
X75708343Y-125119905D01*
X75619905Y-125208343D01*
X75557370Y-125316657D01*
X75525000Y-125437465D01*
X75525000Y-125562535D01*
X75557370Y-125683343D01*
X75619905Y-125791657D01*
X75708343Y-125880095D01*
X75816657Y-125942630D01*
X75937465Y-125975000D01*
X76062535Y-125975000D01*
X76183343Y-125942630D01*
X76291657Y-125880095D01*
X76380095Y-125791657D01*
X76442630Y-125683343D01*
X76475000Y-125562535D01*
X76475000Y-125437465D01*
X76442630Y-125316657D01*
X76380095Y-125208343D01*
X76291657Y-125119905D01*
X76257180Y-125100000D01*
X77414506Y-125100000D01*
X77414505Y-125099999D01*
X77376092Y-124981777D01*
X77279620Y-124792440D01*
X77277686Y-124789284D01*
X77259446Y-124721837D01*
X77280565Y-124655236D01*
X77334340Y-124610625D01*
X77383417Y-124600500D01*
X77785689Y-124600500D01*
X77852728Y-124620185D01*
X77873370Y-124636819D01*
X78783181Y-125546630D01*
X78816666Y-125607953D01*
X78819500Y-125634311D01*
X78819500Y-126137922D01*
X78803341Y-126198233D01*
X78803509Y-126198316D01*
X78803094Y-126199156D01*
X78802891Y-126199916D01*
X78801716Y-126201951D01*
X78801713Y-126201957D01*
X78711394Y-126420006D01*
X78650306Y-126647989D01*
X78619501Y-126881979D01*
X78619500Y-126881995D01*
X78619500Y-127118004D01*
X78619501Y-127118020D01*
X78650306Y-127352010D01*
X78711394Y-127579993D01*
X78801714Y-127798045D01*
X78801719Y-127798056D01*
X78872677Y-127920957D01*
X78919727Y-128002450D01*
X78919729Y-128002453D01*
X78919730Y-128002454D01*
X79063406Y-128189697D01*
X79063412Y-128189704D01*
X79230295Y-128356587D01*
X79230301Y-128356592D01*
X79417550Y-128500273D01*
X79548918Y-128576118D01*
X79621943Y-128618280D01*
X79621948Y-128618282D01*
X79621951Y-128618284D01*
X79840007Y-128708606D01*
X80067986Y-128769693D01*
X80301989Y-128800500D01*
X80301996Y-128800500D01*
X80538004Y-128800500D01*
X80538011Y-128800500D01*
X80772014Y-128769693D01*
X80999993Y-128708606D01*
X81218049Y-128618284D01*
X81422450Y-128500273D01*
X81609699Y-128356592D01*
X81776592Y-128189699D01*
X81920273Y-128002450D01*
X82038284Y-127798049D01*
X82128606Y-127579993D01*
X82189693Y-127352014D01*
X82220500Y-127118011D01*
X82220500Y-126881989D01*
X82189693Y-126647986D01*
X82128606Y-126420007D01*
X82038284Y-126201951D01*
X82037108Y-126199915D01*
X82036905Y-126199156D01*
X82036491Y-126198316D01*
X82036658Y-126198233D01*
X82020500Y-126137922D01*
X82020500Y-124794038D01*
X82000549Y-124668074D01*
X81981090Y-124545215D01*
X81903241Y-124305621D01*
X81903239Y-124305618D01*
X81903239Y-124305616D01*
X81861009Y-124222736D01*
X81788870Y-124081155D01*
X81711462Y-123974612D01*
X81640798Y-123877350D01*
X81640794Y-123877345D01*
X79975630Y-122212181D01*
X79942145Y-122150858D01*
X79947129Y-122081166D01*
X79989001Y-122025233D01*
X80054465Y-122000816D01*
X80063311Y-122000500D01*
X91129448Y-122000500D01*
X91196487Y-122020185D01*
X91242242Y-122072989D01*
X91252186Y-122142147D01*
X91223161Y-122205703D01*
X91202336Y-122224816D01*
X91022490Y-122355483D01*
X91022488Y-122355485D01*
X91022487Y-122355485D01*
X89435484Y-123942488D01*
X89296657Y-124133565D01*
X89231237Y-124261961D01*
X89189433Y-124344003D01*
X89116446Y-124568631D01*
X89079500Y-124801902D01*
X89079500Y-125964717D01*
X89062887Y-126026717D01*
X88961719Y-126201943D01*
X88961714Y-126201954D01*
X88871394Y-126420006D01*
X88810306Y-126647989D01*
X88779501Y-126881979D01*
X88779500Y-126881995D01*
X88779500Y-127118004D01*
X88779501Y-127118020D01*
X88810306Y-127352010D01*
X88871394Y-127579993D01*
X88961714Y-127798045D01*
X88961719Y-127798056D01*
X89032677Y-127920957D01*
X89079727Y-128002450D01*
X89079729Y-128002453D01*
X89079730Y-128002454D01*
X89223406Y-128189697D01*
X89223412Y-128189704D01*
X89390295Y-128356587D01*
X89390301Y-128356592D01*
X89577550Y-128500273D01*
X89708918Y-128576118D01*
X89781943Y-128618280D01*
X89781948Y-128618282D01*
X89781951Y-128618284D01*
X90000007Y-128708606D01*
X90227986Y-128769693D01*
X90461989Y-128800500D01*
X90461996Y-128800500D01*
X90698004Y-128800500D01*
X90698011Y-128800500D01*
X90932014Y-128769693D01*
X91159993Y-128708606D01*
X91378049Y-128618284D01*
X91582450Y-128500273D01*
X91769699Y-128356592D01*
X91769704Y-128356587D01*
X91785335Y-128340957D01*
X91936587Y-128189704D01*
X91936592Y-128189699D01*
X92080273Y-128002450D01*
X92198284Y-127798049D01*
X92288606Y-127579993D01*
X92349693Y-127352014D01*
X92380500Y-127118011D01*
X92380500Y-126881989D01*
X92349693Y-126647986D01*
X92288606Y-126420007D01*
X92198284Y-126201951D01*
X92198282Y-126201948D01*
X92198280Y-126201943D01*
X92097113Y-126026717D01*
X92092962Y-126011228D01*
X92085523Y-125999652D01*
X92080500Y-125964717D01*
X92080500Y-125785576D01*
X92100185Y-125718537D01*
X92152989Y-125672782D01*
X92222147Y-125662838D01*
X92270476Y-125680585D01*
X92288544Y-125691939D01*
X92288551Y-125691942D01*
X92288555Y-125691945D01*
X92541592Y-125813801D01*
X92684490Y-125863803D01*
X92806670Y-125906556D01*
X92806682Y-125906560D01*
X93080491Y-125969055D01*
X93080497Y-125969055D01*
X93080505Y-125969057D01*
X93266547Y-125990018D01*
X93359569Y-126000499D01*
X93359572Y-126000500D01*
X93359575Y-126000500D01*
X93640428Y-126000500D01*
X93640429Y-126000499D01*
X93783055Y-125984429D01*
X93919494Y-125969057D01*
X93919499Y-125969056D01*
X93919509Y-125969055D01*
X94193318Y-125906560D01*
X94458408Y-125813801D01*
X94711445Y-125691945D01*
X94949248Y-125542523D01*
X95168825Y-125367416D01*
X95367416Y-125168825D01*
X95464419Y-125047186D01*
X95521607Y-125007047D01*
X95561366Y-125000500D01*
X98298097Y-125000500D01*
X98531368Y-124963553D01*
X98755992Y-124890568D01*
X98966434Y-124783343D01*
X99157510Y-124644517D01*
X102039669Y-121762356D01*
X102095253Y-121730265D01*
X102203887Y-121701158D01*
X102415888Y-121613344D01*
X102582565Y-121517112D01*
X102644565Y-121500500D01*
X103827111Y-121500500D01*
X103894150Y-121520185D01*
X103914792Y-121536819D01*
X105777640Y-123399668D01*
X105809734Y-123455255D01*
X105838842Y-123563887D01*
X105926653Y-123775881D01*
X105926657Y-123775890D01*
X106041392Y-123974617D01*
X106181081Y-124156661D01*
X106181089Y-124156670D01*
X106206738Y-124182319D01*
X106240223Y-124243642D01*
X106235239Y-124313334D01*
X106206738Y-124357681D01*
X106181081Y-124383338D01*
X106041392Y-124565382D01*
X105926657Y-124764109D01*
X105926650Y-124764123D01*
X105838842Y-124976112D01*
X105830553Y-125007047D01*
X105797119Y-125131829D01*
X105779453Y-125197759D01*
X105779451Y-125197770D01*
X105749500Y-125425258D01*
X105749500Y-125654741D01*
X105770442Y-125813799D01*
X105779452Y-125882238D01*
X105818165Y-126026717D01*
X105838842Y-126103887D01*
X105926650Y-126315876D01*
X105926657Y-126315890D01*
X106041392Y-126514617D01*
X106181081Y-126696661D01*
X106181089Y-126696670D01*
X106344412Y-126859993D01*
X106377897Y-126921316D01*
X106372913Y-126991008D01*
X106355998Y-127021984D01*
X106306649Y-127087906D01*
X106306645Y-127087913D01*
X106256403Y-127222620D01*
X106256401Y-127222627D01*
X106250000Y-127282155D01*
X106250000Y-127680000D01*
X107447339Y-127680000D01*
X107345606Y-127707259D01*
X107254394Y-127759920D01*
X107179920Y-127834394D01*
X107127259Y-127925606D01*
X107100000Y-128027339D01*
X107100000Y-128132661D01*
X107127259Y-128234394D01*
X107179920Y-128325606D01*
X107254394Y-128400080D01*
X107345606Y-128452741D01*
X107447339Y-128480000D01*
X107552661Y-128480000D01*
X107654394Y-128452741D01*
X107745606Y-128400080D01*
X107820080Y-128325606D01*
X107872741Y-128234394D01*
X107900000Y-128132661D01*
X107900000Y-128027339D01*
X107872741Y-127925606D01*
X107820080Y-127834394D01*
X107745606Y-127759920D01*
X107654394Y-127707259D01*
X107589982Y-127690000D01*
X110825220Y-127690000D01*
X110876414Y-127847563D01*
X110876416Y-127847566D01*
X110980211Y-128051276D01*
X111114597Y-128236242D01*
X111276257Y-128397902D01*
X111461223Y-128532288D01*
X111664931Y-128636082D01*
X111869999Y-128702713D01*
X111870000Y-128702713D01*
X112670000Y-128702713D01*
X112875068Y-128636082D01*
X113078776Y-128532288D01*
X113263742Y-128397902D01*
X113425402Y-128236242D01*
X113559788Y-128051276D01*
X113663583Y-127847566D01*
X113663585Y-127847563D01*
X113714780Y-127690000D01*
X112670000Y-127690000D01*
X112670000Y-128702713D01*
X111870000Y-128702713D01*
X111870000Y-127690000D01*
X110825220Y-127690000D01*
X107589982Y-127690000D01*
X107552661Y-127680000D01*
X108750000Y-127680000D01*
X108750000Y-127282172D01*
X108749999Y-127282155D01*
X108743598Y-127222627D01*
X108743596Y-127222620D01*
X108693354Y-127087913D01*
X108693352Y-127087910D01*
X108644001Y-127021985D01*
X108619584Y-126956521D01*
X108634436Y-126888248D01*
X108655587Y-126859992D01*
X108656656Y-126858922D01*
X108656661Y-126858919D01*
X108818919Y-126696661D01*
X108958611Y-126514612D01*
X109073344Y-126315888D01*
X109076762Y-126307634D01*
X109103640Y-126267406D01*
X110137589Y-125233457D01*
X110198910Y-125199974D01*
X110268602Y-125204958D01*
X110324535Y-125246830D01*
X110345043Y-125289046D01*
X110369178Y-125379118D01*
X110467144Y-125615631D01*
X110467151Y-125615646D01*
X110595152Y-125837352D01*
X110751011Y-126040470D01*
X110932025Y-126221484D01*
X110932029Y-126221487D01*
X110932035Y-126221493D01*
X111010452Y-126281665D01*
X111051653Y-126338091D01*
X111055808Y-126407838D01*
X111035283Y-126452924D01*
X110980209Y-126528727D01*
X110876416Y-126732433D01*
X110876414Y-126732436D01*
X110825220Y-126889999D01*
X110825220Y-126890000D01*
X111892182Y-126890000D01*
X111829890Y-126952292D01*
X111757482Y-127077708D01*
X111720000Y-127217591D01*
X111720000Y-127362409D01*
X111757482Y-127502292D01*
X111829890Y-127627708D01*
X111932292Y-127730110D01*
X112057708Y-127802518D01*
X112197591Y-127840000D01*
X112342409Y-127840000D01*
X112482292Y-127802518D01*
X112607708Y-127730110D01*
X112710110Y-127627708D01*
X112782518Y-127502292D01*
X112820000Y-127362409D01*
X112820000Y-127217591D01*
X112782518Y-127077708D01*
X112710110Y-126952292D01*
X112647818Y-126890000D01*
X113714780Y-126890000D01*
X113714779Y-126889999D01*
X113663585Y-126732436D01*
X113663583Y-126732433D01*
X113559788Y-126528723D01*
X113504717Y-126452925D01*
X113502221Y-126445931D01*
X113496912Y-126440746D01*
X113490642Y-126413478D01*
X113481237Y-126387119D01*
X113482918Y-126379887D01*
X113481255Y-126372653D01*
X113490724Y-126346320D01*
X113497062Y-126319065D01*
X113502971Y-126312261D01*
X113504898Y-126306905D01*
X113529552Y-126281661D01*
X113536778Y-126276116D01*
X113601950Y-126250929D01*
X113612255Y-126250500D01*
X120868097Y-126250500D01*
X121101368Y-126213553D01*
X121119822Y-126207557D01*
X121325992Y-126140568D01*
X121536434Y-126033343D01*
X121727510Y-125894517D01*
X126144518Y-121477510D01*
X126283343Y-121286433D01*
X126390568Y-121075992D01*
X126463553Y-120851368D01*
X126486023Y-120709500D01*
X126500500Y-120618097D01*
X126500500Y-111881902D01*
X126463553Y-111648631D01*
X126390566Y-111424003D01*
X126303735Y-111253588D01*
X126283343Y-111213566D01*
X126144517Y-111022490D01*
X124477510Y-109355483D01*
X124286434Y-109216657D01*
X124075996Y-109109433D01*
X123851368Y-109036446D01*
X123618097Y-108999500D01*
X123618092Y-108999500D01*
X123561366Y-108999500D01*
X123494327Y-108979815D01*
X123464419Y-108952813D01*
X123452179Y-108937465D01*
X123367416Y-108831175D01*
X123168825Y-108632584D01*
X122949248Y-108457477D01*
X122711445Y-108308055D01*
X122711442Y-108308053D01*
X122458411Y-108186200D01*
X122260767Y-108117041D01*
X122203991Y-108076320D01*
X122178244Y-108011367D01*
X122191700Y-107942805D01*
X122240088Y-107892402D01*
X122260767Y-107882959D01*
X122321859Y-107861581D01*
X122458408Y-107813801D01*
X122711445Y-107691945D01*
X122949248Y-107542523D01*
X123168825Y-107367416D01*
X123367416Y-107168825D01*
X123542523Y-106949248D01*
X123691945Y-106711445D01*
X123813801Y-106458408D01*
X123906560Y-106193318D01*
X123969055Y-105919509D01*
X123970815Y-105903895D01*
X124000499Y-105640431D01*
X124000500Y-105640427D01*
X124000500Y-105359572D01*
X124000499Y-105359568D01*
X123969057Y-105080505D01*
X123969054Y-105080487D01*
X123952770Y-105009144D01*
X123906560Y-104806682D01*
X123902966Y-104796412D01*
X123856706Y-104664208D01*
X123813801Y-104541592D01*
X123691945Y-104288555D01*
X123542523Y-104050752D01*
X123367416Y-103831175D01*
X123168825Y-103632584D01*
X122949248Y-103457477D01*
X122711445Y-103308055D01*
X122711442Y-103308053D01*
X122458411Y-103186200D01*
X122260767Y-103117041D01*
X122203991Y-103076320D01*
X122178244Y-103011367D01*
X122191700Y-102942805D01*
X122240088Y-102892402D01*
X122260767Y-102882959D01*
X122321859Y-102861581D01*
X122458408Y-102813801D01*
X122711445Y-102691945D01*
X122949248Y-102542523D01*
X123168825Y-102367416D01*
X123367416Y-102168825D01*
X123542523Y-101949248D01*
X123691945Y-101711445D01*
X123813801Y-101458408D01*
X123906560Y-101193318D01*
X123969055Y-100919509D01*
X123973314Y-100881714D01*
X124000499Y-100640431D01*
X124000500Y-100640427D01*
X124000500Y-100359572D01*
X124000499Y-100359568D01*
X123969057Y-100080505D01*
X123969054Y-100080487D01*
X123906560Y-99806682D01*
X123906556Y-99806670D01*
X123883465Y-99740680D01*
X123813801Y-99541592D01*
X123691945Y-99288555D01*
X123542523Y-99050752D01*
X123367416Y-98831175D01*
X123168825Y-98632584D01*
X122949248Y-98457477D01*
X122711445Y-98308055D01*
X122711442Y-98308053D01*
X122458411Y-98186200D01*
X122193329Y-98093443D01*
X122193317Y-98093439D01*
X121919512Y-98030945D01*
X121919494Y-98030942D01*
X121640431Y-97999500D01*
X121640425Y-97999500D01*
X121359575Y-97999500D01*
X121359568Y-97999500D01*
X121080505Y-98030942D01*
X121080487Y-98030945D01*
X120806682Y-98093439D01*
X120806670Y-98093443D01*
X120541588Y-98186200D01*
X120288557Y-98308053D01*
X120050753Y-98457476D01*
X119831175Y-98632583D01*
X119632583Y-98831175D01*
X119535581Y-98952813D01*
X119478393Y-98992953D01*
X119438634Y-98999500D01*
X106381903Y-98999500D01*
X106148631Y-99036446D01*
X105924003Y-99109433D01*
X105713565Y-99216657D01*
X105522488Y-99355484D01*
X105522487Y-99355485D01*
X102454792Y-102423181D01*
X102393469Y-102456666D01*
X102367111Y-102459500D01*
X100902995Y-102459500D01*
X100835956Y-102439815D01*
X100806893Y-102413861D01*
X100711109Y-102296390D01*
X100595933Y-102202477D01*
X100553407Y-102167802D01*
X100373049Y-102073591D01*
X100373048Y-102073590D01*
X100373045Y-102073589D01*
X100255829Y-102040050D01*
X100177418Y-102017614D01*
X100177415Y-102017613D01*
X100177413Y-102017613D01*
X100104631Y-102011142D01*
X100058037Y-102007000D01*
X100058033Y-102007000D01*
X99220389Y-102007000D01*
X99153350Y-101987315D01*
X99132708Y-101970681D01*
X98517511Y-101355484D01*
X98455314Y-101310295D01*
X98326434Y-101216657D01*
X98280650Y-101193329D01*
X98115996Y-101109433D01*
X97891368Y-101036446D01*
X97658097Y-100999500D01*
X97658092Y-100999500D01*
X94335283Y-100999500D01*
X94273283Y-100982887D01*
X94098056Y-100881719D01*
X94098045Y-100881714D01*
X93879993Y-100791394D01*
X93652010Y-100730306D01*
X93418020Y-100699501D01*
X93418017Y-100699500D01*
X93418011Y-100699500D01*
X93181989Y-100699500D01*
X93181983Y-100699500D01*
X93181979Y-100699501D01*
X92947989Y-100730306D01*
X92720006Y-100791394D01*
X92501954Y-100881714D01*
X92501943Y-100881719D01*
X92297545Y-100999730D01*
X92110302Y-101143406D01*
X92110295Y-101143412D01*
X91943412Y-101310295D01*
X91943406Y-101310302D01*
X91799730Y-101497545D01*
X91681719Y-101701943D01*
X91681714Y-101701954D01*
X91591394Y-101920006D01*
X91530306Y-102147989D01*
X91499501Y-102381979D01*
X91499500Y-102381995D01*
X91499500Y-102618004D01*
X91499501Y-102618020D01*
X91525275Y-102813799D01*
X91530307Y-102852014D01*
X91561668Y-102969055D01*
X91591394Y-103079993D01*
X91681714Y-103298045D01*
X91681719Y-103298056D01*
X91752677Y-103420957D01*
X91799727Y-103502450D01*
X91799729Y-103502453D01*
X91799730Y-103502454D01*
X91943406Y-103689697D01*
X91943412Y-103689704D01*
X92110295Y-103856587D01*
X92110301Y-103856592D01*
X92297550Y-104000273D01*
X92428918Y-104076118D01*
X92501943Y-104118280D01*
X92501948Y-104118282D01*
X92501951Y-104118284D01*
X92720007Y-104208606D01*
X92947986Y-104269693D01*
X93181989Y-104300500D01*
X93181996Y-104300500D01*
X93418004Y-104300500D01*
X93418011Y-104300500D01*
X93652014Y-104269693D01*
X93879993Y-104208606D01*
X94098049Y-104118284D01*
X94161714Y-104081527D01*
X94273283Y-104017113D01*
X94335283Y-104000500D01*
X96867111Y-104000500D01*
X96896551Y-104009144D01*
X96926538Y-104015668D01*
X96931553Y-104019422D01*
X96934150Y-104020185D01*
X96954791Y-104036818D01*
X96963181Y-104045208D01*
X96996666Y-104106531D01*
X96999500Y-104132889D01*
X96999500Y-104413743D01*
X96979815Y-104480782D01*
X96927011Y-104526537D01*
X96857853Y-104536481D01*
X96819382Y-104523173D01*
X96818980Y-104523989D01*
X96815333Y-104522190D01*
X96548860Y-104411814D01*
X96548848Y-104411810D01*
X96548845Y-104411809D01*
X96270217Y-104337151D01*
X96270211Y-104337150D01*
X96270206Y-104337149D01*
X95984238Y-104299501D01*
X95984233Y-104299500D01*
X95984228Y-104299500D01*
X95695772Y-104299500D01*
X95695766Y-104299500D01*
X95695761Y-104299501D01*
X95409793Y-104337149D01*
X95409786Y-104337150D01*
X95409783Y-104337151D01*
X95131155Y-104411809D01*
X95131139Y-104411814D01*
X94864663Y-104522191D01*
X94864647Y-104522199D01*
X94614851Y-104666420D01*
X94614835Y-104666431D01*
X94385997Y-104842024D01*
X94385990Y-104842030D01*
X94182030Y-105045990D01*
X94182024Y-105045997D01*
X94006431Y-105274835D01*
X94006420Y-105274851D01*
X93862199Y-105524647D01*
X93862191Y-105524663D01*
X93751814Y-105791139D01*
X93751809Y-105791155D01*
X93721601Y-105903895D01*
X93677152Y-106069780D01*
X93677149Y-106069793D01*
X93639501Y-106355761D01*
X93639500Y-106355778D01*
X93639500Y-106644221D01*
X93639501Y-106644238D01*
X93677149Y-106930206D01*
X93677150Y-106930211D01*
X93677151Y-106930217D01*
X93741086Y-107168825D01*
X93751809Y-107208844D01*
X93751814Y-107208860D01*
X93862191Y-107475336D01*
X93862199Y-107475352D01*
X94006420Y-107725148D01*
X94006431Y-107725164D01*
X94182024Y-107954002D01*
X94182030Y-107954009D01*
X94385990Y-108157969D01*
X94385997Y-108157975D01*
X94543359Y-108278723D01*
X94614844Y-108333575D01*
X94614851Y-108333579D01*
X94864647Y-108477800D01*
X94864663Y-108477808D01*
X95131139Y-108588185D01*
X95131145Y-108588186D01*
X95131155Y-108588191D01*
X95409783Y-108662849D01*
X95695772Y-108700500D01*
X95695779Y-108700500D01*
X95984221Y-108700500D01*
X95984228Y-108700500D01*
X96270217Y-108662849D01*
X96548845Y-108588191D01*
X96548857Y-108588185D01*
X96548860Y-108588185D01*
X96815336Y-108477808D01*
X96815339Y-108477806D01*
X96815345Y-108477804D01*
X97065156Y-108333575D01*
X97294004Y-108157974D01*
X97415160Y-108036817D01*
X97442091Y-108022111D01*
X97467905Y-108005523D01*
X97474104Y-108004631D01*
X97476481Y-108003334D01*
X97502840Y-108000500D01*
X97657744Y-108000500D01*
X97724783Y-108020185D01*
X97733236Y-108026129D01*
X97740455Y-108031669D01*
X97781655Y-108088099D01*
X97785805Y-108157845D01*
X97765282Y-108202924D01*
X97710211Y-108278723D01*
X97710210Y-108278725D01*
X97606416Y-108482433D01*
X97606414Y-108482436D01*
X97555220Y-108639999D01*
X97555220Y-108640000D01*
X98622182Y-108640000D01*
X98559890Y-108702292D01*
X98487482Y-108827708D01*
X98450000Y-108967591D01*
X98450000Y-109112409D01*
X98487482Y-109252292D01*
X98559890Y-109377708D01*
X98662292Y-109480110D01*
X98787708Y-109552518D01*
X98927591Y-109590000D01*
X99072409Y-109590000D01*
X99212292Y-109552518D01*
X99337708Y-109480110D01*
X99440110Y-109377708D01*
X99512518Y-109252292D01*
X99550000Y-109112409D01*
X99550000Y-108967591D01*
X99512518Y-108827708D01*
X99440110Y-108702292D01*
X99377818Y-108640000D01*
X100444780Y-108640000D01*
X100444779Y-108639999D01*
X100393585Y-108482436D01*
X100393583Y-108482433D01*
X100289788Y-108278723D01*
X100234717Y-108202925D01*
X100232221Y-108195931D01*
X100226912Y-108190746D01*
X100220642Y-108163478D01*
X100211237Y-108137119D01*
X100212918Y-108129887D01*
X100211255Y-108122653D01*
X100220724Y-108096320D01*
X100227062Y-108069065D01*
X100232971Y-108062261D01*
X100234898Y-108056905D01*
X100259552Y-108031661D01*
X100266778Y-108026116D01*
X100331950Y-108000929D01*
X100342255Y-108000500D01*
X103000000Y-108000500D01*
X103000000Y-108999500D01*
X101381903Y-108999500D01*
X101148631Y-109036446D01*
X100924003Y-109109433D01*
X100713565Y-109216657D01*
X100522488Y-109355484D01*
X100522487Y-109355485D01*
X100474292Y-109403681D01*
X100412969Y-109437166D01*
X100386611Y-109440000D01*
X99400000Y-109440000D01*
X99400000Y-110426610D01*
X99380315Y-110493649D01*
X99363681Y-110514291D01*
X94975484Y-114902488D01*
X94836657Y-115093565D01*
X94746063Y-115271368D01*
X94729433Y-115304003D01*
X94656446Y-115528631D01*
X94619500Y-115761902D01*
X94619500Y-116337159D01*
X94599815Y-116404198D01*
X94583181Y-116424840D01*
X94462030Y-116545990D01*
X94462024Y-116545997D01*
X94286431Y-116774835D01*
X94286420Y-116774851D01*
X94142199Y-117024647D01*
X94142191Y-117024663D01*
X94031814Y-117291139D01*
X94031809Y-117291155D01*
X93957152Y-117569782D01*
X93957149Y-117569793D01*
X93919501Y-117855761D01*
X93919500Y-117855778D01*
X93919500Y-118144221D01*
X93919501Y-118144238D01*
X93957149Y-118430206D01*
X93957150Y-118430211D01*
X93957151Y-118430217D01*
X94019849Y-118664208D01*
X94031809Y-118708844D01*
X94031814Y-118708860D01*
X94081183Y-118828048D01*
X94088652Y-118897517D01*
X94057376Y-118959996D01*
X93997287Y-118995648D01*
X93966622Y-118999500D01*
X83033378Y-118999500D01*
X82966339Y-118979815D01*
X82920584Y-118927011D01*
X82910640Y-118857853D01*
X82918817Y-118828048D01*
X82968185Y-118708860D01*
X82968185Y-118708857D01*
X82968191Y-118708845D01*
X83042849Y-118430217D01*
X83080500Y-118144228D01*
X83080500Y-117855772D01*
X83042849Y-117569783D01*
X82968191Y-117291155D01*
X82968186Y-117291145D01*
X82968185Y-117291139D01*
X82857808Y-117024663D01*
X82857800Y-117024647D01*
X82713579Y-116774851D01*
X82713575Y-116774844D01*
X82575842Y-116595346D01*
X82537975Y-116545997D01*
X82537969Y-116545990D01*
X82334009Y-116342030D01*
X82334002Y-116342024D01*
X82105164Y-116166431D01*
X82105162Y-116166429D01*
X82105156Y-116166425D01*
X82105151Y-116166422D01*
X82105148Y-116166420D01*
X81855352Y-116022199D01*
X81855336Y-116022191D01*
X81588860Y-115911814D01*
X81588848Y-115911810D01*
X81588845Y-115911809D01*
X81310217Y-115837151D01*
X81310211Y-115837150D01*
X81310206Y-115837149D01*
X81024238Y-115799501D01*
X81024233Y-115799500D01*
X81024228Y-115799500D01*
X80735772Y-115799500D01*
X80735766Y-115799500D01*
X80735761Y-115799501D01*
X80449793Y-115837149D01*
X80449786Y-115837150D01*
X80449783Y-115837151D01*
X80262195Y-115887415D01*
X80171155Y-115911809D01*
X80171139Y-115911814D01*
X79904663Y-116022191D01*
X79904647Y-116022199D01*
X79654851Y-116166420D01*
X79654835Y-116166431D01*
X79425997Y-116342024D01*
X79425990Y-116342030D01*
X79404840Y-116363181D01*
X79343517Y-116396666D01*
X79317159Y-116399500D01*
X77515465Y-116399500D01*
X77448426Y-116379815D01*
X77444877Y-116377447D01*
X77392737Y-116341324D01*
X77344627Y-116307993D01*
X77139681Y-116214903D01*
X77139678Y-116214902D01*
X76921420Y-116159905D01*
X76921413Y-116159904D01*
X76877347Y-116156436D01*
X76789217Y-116149500D01*
X76789215Y-116149500D01*
X75210791Y-116149500D01*
X75210776Y-116149501D01*
X75078586Y-116159904D01*
X75078579Y-116159905D01*
X74860321Y-116214902D01*
X74860318Y-116214903D01*
X74655377Y-116307991D01*
X74655367Y-116307997D01*
X74470354Y-116436174D01*
X74470342Y-116436184D01*
X74311184Y-116595342D01*
X74311174Y-116595354D01*
X74182997Y-116780367D01*
X74182991Y-116780377D01*
X74089903Y-116985318D01*
X74089902Y-116985321D01*
X74034905Y-117203579D01*
X74034904Y-117203586D01*
X74024500Y-117335777D01*
X72041764Y-117335777D01*
X72041764Y-115279670D01*
X67180906Y-115279670D01*
X67159114Y-115279670D01*
X67145796Y-115286942D01*
X67119438Y-115289776D01*
X66124500Y-115289776D01*
X66057461Y-115270091D01*
X66011706Y-115217287D01*
X66000500Y-115165776D01*
X66000500Y-111672566D01*
X66020185Y-111605527D01*
X66072989Y-111559772D01*
X66124500Y-111548566D01*
X72107872Y-111548566D01*
X72107872Y-109400000D01*
X74585494Y-109400000D01*
X74623907Y-109518222D01*
X74720379Y-109707557D01*
X74845272Y-109879459D01*
X74845276Y-109879464D01*
X74995535Y-110029723D01*
X74995540Y-110029727D01*
X75167442Y-110154620D01*
X75356782Y-110251095D01*
X75558873Y-110316758D01*
X75599999Y-110323270D01*
X75600000Y-110323270D01*
X76400000Y-110323270D01*
X76441126Y-110316758D01*
X76643217Y-110251095D01*
X76832557Y-110154620D01*
X77004459Y-110029727D01*
X77004464Y-110029723D01*
X77154723Y-109879464D01*
X77154727Y-109879459D01*
X77279620Y-109707557D01*
X77376092Y-109518222D01*
X77414506Y-109400000D01*
X76400000Y-109400000D01*
X76400000Y-110323270D01*
X75600000Y-110323270D01*
X75600000Y-109400000D01*
X74585494Y-109400000D01*
X72107872Y-109400000D01*
X72107872Y-106762706D01*
X72089769Y-106729553D01*
X72086935Y-106703195D01*
X72086935Y-103335777D01*
X74024500Y-103335777D01*
X74024500Y-104664208D01*
X74024501Y-104664223D01*
X74034904Y-104796413D01*
X74034905Y-104796420D01*
X74089902Y-105014678D01*
X74089903Y-105014681D01*
X74182991Y-105219622D01*
X74182997Y-105219632D01*
X74298863Y-105386876D01*
X74320860Y-105453193D01*
X74304322Y-105519492D01*
X74211777Y-105679784D01*
X74211773Y-105679794D01*
X74118947Y-105903895D01*
X74056161Y-106138214D01*
X74024500Y-106378711D01*
X74024500Y-106621288D01*
X74056161Y-106861785D01*
X74118947Y-107096104D01*
X74211773Y-107320205D01*
X74211777Y-107320214D01*
X74223265Y-107340111D01*
X74333064Y-107530289D01*
X74333066Y-107530292D01*
X74333067Y-107530293D01*
X74480733Y-107722736D01*
X74480739Y-107722743D01*
X74652256Y-107894260D01*
X74652263Y-107894266D01*
X74785905Y-107996813D01*
X74827108Y-108053241D01*
X74831263Y-108122987D01*
X74810737Y-108168074D01*
X74720379Y-108292442D01*
X74623907Y-108481777D01*
X74585494Y-108599999D01*
X74585494Y-108600000D01*
X75742820Y-108600000D01*
X75708343Y-108619905D01*
X75619905Y-108708343D01*
X75557370Y-108816657D01*
X75525000Y-108937465D01*
X75525000Y-109062535D01*
X75557370Y-109183343D01*
X75619905Y-109291657D01*
X75708343Y-109380095D01*
X75816657Y-109442630D01*
X75937465Y-109475000D01*
X76062535Y-109475000D01*
X76183343Y-109442630D01*
X76291657Y-109380095D01*
X76380095Y-109291657D01*
X76442630Y-109183343D01*
X76475000Y-109062535D01*
X76475000Y-108937465D01*
X76442630Y-108816657D01*
X76380095Y-108708343D01*
X76291657Y-108619905D01*
X76257180Y-108600000D01*
X77414506Y-108600000D01*
X77414505Y-108599999D01*
X77376092Y-108481777D01*
X77279620Y-108292442D01*
X77210558Y-108197385D01*
X77187078Y-108131579D01*
X77202904Y-108063525D01*
X77253009Y-108014830D01*
X77310876Y-108000500D01*
X78937160Y-108000500D01*
X79004199Y-108020185D01*
X79024836Y-108036814D01*
X79095620Y-108107598D01*
X79145998Y-108157976D01*
X79303359Y-108278723D01*
X79374844Y-108333575D01*
X79374851Y-108333579D01*
X79624647Y-108477800D01*
X79624663Y-108477808D01*
X79891139Y-108588185D01*
X79891145Y-108588186D01*
X79891155Y-108588191D01*
X80169783Y-108662849D01*
X80455772Y-108700500D01*
X80455779Y-108700500D01*
X80744221Y-108700500D01*
X80744228Y-108700500D01*
X81030217Y-108662849D01*
X81308845Y-108588191D01*
X81308857Y-108588185D01*
X81308860Y-108588185D01*
X81575336Y-108477808D01*
X81575339Y-108477806D01*
X81575345Y-108477804D01*
X81825156Y-108333575D01*
X82054004Y-108157974D01*
X82175160Y-108036817D01*
X82236481Y-108003334D01*
X82262840Y-108000500D01*
X83327111Y-108000500D01*
X83394150Y-108020185D01*
X83414792Y-108036819D01*
X84280802Y-108902829D01*
X84314287Y-108964152D01*
X84317121Y-108990510D01*
X84317121Y-110587363D01*
X84297436Y-110654402D01*
X84295049Y-110657979D01*
X84175618Y-110830367D01*
X84175612Y-110830377D01*
X84082524Y-111035318D01*
X84082523Y-111035321D01*
X84027526Y-111253579D01*
X84027525Y-111253586D01*
X84017121Y-111385777D01*
X84017121Y-112614208D01*
X84017122Y-112614223D01*
X84027525Y-112746413D01*
X84027526Y-112746420D01*
X84082523Y-112964678D01*
X84082524Y-112964681D01*
X84175612Y-113169622D01*
X84175618Y-113169632D01*
X84303795Y-113354645D01*
X84303799Y-113354650D01*
X84303802Y-113354654D01*
X84462967Y-113513819D01*
X84462971Y-113513822D01*
X84462975Y-113513825D01*
X84602224Y-113610297D01*
X84647995Y-113642007D01*
X84852938Y-113735096D01*
X84852942Y-113735097D01*
X85071200Y-113790094D01*
X85071202Y-113790094D01*
X85071209Y-113790096D01*
X85203404Y-113800500D01*
X86431837Y-113800499D01*
X86564033Y-113790096D01*
X86782304Y-113735096D01*
X86987247Y-113642007D01*
X87172275Y-113513819D01*
X87331440Y-113354654D01*
X87459628Y-113169626D01*
X87460579Y-113167530D01*
X87461270Y-113166730D01*
X87462373Y-113164787D01*
X87462758Y-113165005D01*
X87506222Y-113114635D01*
X87573220Y-113094810D01*
X87631191Y-113111100D01*
X87631932Y-113109648D01*
X87818589Y-113204755D01*
X88013203Y-113267990D01*
X88215304Y-113300000D01*
X88419938Y-113300000D01*
X88622038Y-113267990D01*
X88816652Y-113204755D01*
X88909422Y-113157485D01*
X88122459Y-112370523D01*
X88105458Y-112339388D01*
X88163227Y-112372741D01*
X88264960Y-112400000D01*
X88370282Y-112400000D01*
X88472015Y-112372741D01*
X88563227Y-112320080D01*
X88637701Y-112245606D01*
X88690362Y-112154394D01*
X88717621Y-112052661D01*
X88717621Y-111999999D01*
X88883306Y-111999999D01*
X88883306Y-112000000D01*
X89475106Y-112591800D01*
X89522376Y-112499031D01*
X89585611Y-112304417D01*
X89617621Y-112102317D01*
X89617621Y-111897682D01*
X89585611Y-111695582D01*
X89522376Y-111500968D01*
X89475106Y-111408198D01*
X88883306Y-111999999D01*
X88717621Y-111999999D01*
X88717621Y-111947339D01*
X88690362Y-111845606D01*
X88637701Y-111754394D01*
X88563227Y-111679920D01*
X88472015Y-111627259D01*
X88370282Y-111600000D01*
X88264960Y-111600000D01*
X88163227Y-111627259D01*
X88100673Y-111663374D01*
X88122459Y-111629476D01*
X88909422Y-110842512D01*
X88816655Y-110795246D01*
X88816648Y-110795243D01*
X88622038Y-110732009D01*
X88419938Y-110700000D01*
X88215304Y-110700000D01*
X88013203Y-110732009D01*
X87818589Y-110795244D01*
X87631932Y-110890352D01*
X87631163Y-110888842D01*
X87570805Y-110905160D01*
X87504206Y-110884035D01*
X87470831Y-110850755D01*
X87464931Y-110842049D01*
X87459628Y-110830374D01*
X87339843Y-110657476D01*
X87339473Y-110656929D01*
X87328987Y-110624196D01*
X87318196Y-110591662D01*
X87318174Y-110590442D01*
X87318158Y-110590390D01*
X87318172Y-110590334D01*
X87318121Y-110587363D01*
X87318121Y-109440000D01*
X97555220Y-109440000D01*
X97606414Y-109597563D01*
X97606416Y-109597566D01*
X97710211Y-109801276D01*
X97844597Y-109986242D01*
X98006257Y-110147902D01*
X98191223Y-110282288D01*
X98394931Y-110386082D01*
X98599999Y-110452713D01*
X98600000Y-110452713D01*
X98600000Y-109440000D01*
X97555220Y-109440000D01*
X87318121Y-109440000D01*
X87318121Y-108199523D01*
X87281174Y-107966252D01*
X87231639Y-107813801D01*
X87208189Y-107741629D01*
X87208187Y-107741626D01*
X87208187Y-107741624D01*
X87158708Y-107644517D01*
X87158707Y-107644516D01*
X87158706Y-107644515D01*
X87100964Y-107531187D01*
X87100314Y-107530293D01*
X86981976Y-107367416D01*
X86962138Y-107340111D01*
X84977510Y-105355483D01*
X84786434Y-105216657D01*
X84753717Y-105199987D01*
X84575996Y-105109433D01*
X84351368Y-105036446D01*
X84118097Y-104999500D01*
X84118092Y-104999500D01*
X82262840Y-104999500D01*
X82195801Y-104979815D01*
X82175163Y-104963185D01*
X82054004Y-104842026D01*
X82054003Y-104842025D01*
X82054001Y-104842023D01*
X81825164Y-104666431D01*
X81825162Y-104666429D01*
X81825156Y-104666425D01*
X81825151Y-104666422D01*
X81825148Y-104666420D01*
X81575352Y-104522199D01*
X81575336Y-104522191D01*
X81308860Y-104411814D01*
X81308847Y-104411810D01*
X81308848Y-104411810D01*
X81308845Y-104411809D01*
X81044175Y-104340891D01*
X81038992Y-104337732D01*
X81032937Y-104337299D01*
X81009508Y-104319760D01*
X80984517Y-104304527D01*
X80981863Y-104299065D01*
X80977004Y-104295427D01*
X80966777Y-104268008D01*
X80953988Y-104241680D01*
X80954708Y-104235650D01*
X80952587Y-104229962D01*
X80958808Y-104201362D01*
X80962283Y-104172304D01*
X80966478Y-104166105D01*
X80967439Y-104161690D01*
X80988585Y-104133441D01*
X81085209Y-104036816D01*
X81146532Y-104003334D01*
X81172889Y-104000500D01*
X82104717Y-104000500D01*
X82166717Y-104017113D01*
X82341943Y-104118280D01*
X82341948Y-104118282D01*
X82341951Y-104118284D01*
X82560007Y-104208606D01*
X82787986Y-104269693D01*
X83021989Y-104300500D01*
X83021996Y-104300500D01*
X83258004Y-104300500D01*
X83258011Y-104300500D01*
X83492014Y-104269693D01*
X83719993Y-104208606D01*
X83938049Y-104118284D01*
X84142450Y-104000273D01*
X84329699Y-103856592D01*
X84496592Y-103689699D01*
X84640273Y-103502450D01*
X84758284Y-103298049D01*
X84848606Y-103079993D01*
X84909693Y-102852014D01*
X84940500Y-102618011D01*
X84940500Y-102381989D01*
X84909693Y-102147986D01*
X84848606Y-101920007D01*
X84758284Y-101701951D01*
X84758282Y-101701948D01*
X84758280Y-101701943D01*
X84716118Y-101628918D01*
X84640273Y-101497550D01*
X84496592Y-101310301D01*
X84496587Y-101310295D01*
X84329704Y-101143412D01*
X84329697Y-101143406D01*
X84142454Y-100999730D01*
X84142453Y-100999729D01*
X84142450Y-100999727D01*
X84003514Y-100919512D01*
X83938056Y-100881719D01*
X83938045Y-100881714D01*
X83719993Y-100791394D01*
X83492010Y-100730306D01*
X83258020Y-100699501D01*
X83258017Y-100699500D01*
X83258011Y-100699500D01*
X83021989Y-100699500D01*
X83021983Y-100699500D01*
X83021979Y-100699501D01*
X82787989Y-100730306D01*
X82560006Y-100791394D01*
X82341954Y-100881714D01*
X82341943Y-100881719D01*
X82166717Y-100982887D01*
X82104717Y-100999500D01*
X80381903Y-100999500D01*
X80148631Y-101036446D01*
X79924003Y-101109433D01*
X79713565Y-101216657D01*
X79522488Y-101355484D01*
X79522487Y-101355485D01*
X78414792Y-102463181D01*
X78353469Y-102496666D01*
X78327111Y-102499500D01*
X77644335Y-102499500D01*
X77577296Y-102479815D01*
X77556654Y-102463181D01*
X77529657Y-102436184D01*
X77529654Y-102436181D01*
X77529650Y-102436178D01*
X77529645Y-102436174D01*
X77344632Y-102307997D01*
X77344630Y-102307995D01*
X77344626Y-102307993D01*
X77319083Y-102296391D01*
X77139681Y-102214903D01*
X77139678Y-102214902D01*
X76921420Y-102159905D01*
X76921413Y-102159904D01*
X76877347Y-102156436D01*
X76789217Y-102149500D01*
X76789215Y-102149500D01*
X75210791Y-102149500D01*
X75210776Y-102149501D01*
X75078586Y-102159904D01*
X75078579Y-102159905D01*
X74860321Y-102214902D01*
X74860318Y-102214903D01*
X74655377Y-102307991D01*
X74655367Y-102307997D01*
X74470354Y-102436174D01*
X74470342Y-102436184D01*
X74311184Y-102595342D01*
X74311174Y-102595354D01*
X74182997Y-102780367D01*
X74182991Y-102780377D01*
X74089903Y-102985318D01*
X74089902Y-102985321D01*
X74034905Y-103203579D01*
X74034904Y-103203586D01*
X74024500Y-103335777D01*
X72086935Y-103335777D01*
X72086935Y-101790834D01*
X66124500Y-101790834D01*
X66057461Y-101771149D01*
X66011706Y-101718345D01*
X66000500Y-101666834D01*
X66000500Y-97124500D01*
X66020185Y-97057461D01*
X66072989Y-97011706D01*
X66124500Y-97000500D01*
X127454903Y-97000500D01*
X127521942Y-97020185D01*
G37*
%TD.AperFunction*%
%TD*%
%TA.AperFunction,Conductor*%
%TO.N,GNDREF*%
G36*
X119505673Y-112020185D02*
G01*
X119535580Y-112047186D01*
X119632584Y-112168825D01*
X119831175Y-112367416D01*
X120050752Y-112542523D01*
X120181727Y-112624820D01*
X120213852Y-112645006D01*
X120260143Y-112697341D01*
X120270791Y-112766394D01*
X120242416Y-112830243D01*
X120213852Y-112854994D01*
X120050753Y-112957476D01*
X119831175Y-113132583D01*
X119632577Y-113331181D01*
X119599379Y-113372812D01*
X119542191Y-113412953D01*
X119502432Y-113419500D01*
X103047890Y-113419500D01*
X102980851Y-113399815D01*
X102969534Y-113391605D01*
X102943407Y-113370302D01*
X102763049Y-113276091D01*
X102763048Y-113276090D01*
X102763045Y-113276089D01*
X102645829Y-113242550D01*
X102567418Y-113220114D01*
X102567415Y-113220113D01*
X102567413Y-113220113D01*
X102494631Y-113213642D01*
X102448037Y-113209500D01*
X102448033Y-113209500D01*
X101211888Y-113209500D01*
X101144849Y-113189815D01*
X101099094Y-113137011D01*
X101089150Y-113067853D01*
X101118175Y-113004297D01*
X101124207Y-112997819D01*
X101579504Y-112542523D01*
X102085208Y-112036819D01*
X102146531Y-112003334D01*
X102172889Y-112000500D01*
X119438634Y-112000500D01*
X119505673Y-112020185D01*
G37*
%TD.AperFunction*%
%TD*%
M02*
