M48
; DRILL file {KiCad 9.0.2} date 2025-12-15T13:09:38+0700
; FORMAT={-:-/ absolute / metric / decimal}
; #@! TF.CreationDate,2025-12-15T13:09:38+07:00
; #@! TF.GenerationSoftware,Kicad,Pcbnew,9.0.2
; #@! TF.FileFunction,Plated,1,2,PTH
FMAT,2
METRIC
; #@! TA.AperFunction,Plated,PTH,ComponentDrill
T1C0.800
; #@! TA.AperFunction,Plated,PTH,ComponentDrill
T2C0.950
; #@! TA.AperFunction,Plated,PTH,ComponentDrill
T3C1.100
; #@! TA.AperFunction,Plated,PTH,ComponentDrill
T4C1.200
; #@! TA.AperFunction,Plated,PTH,ComponentDrill
T5C1.600
%
G90
G05
T1
X81.42Y-127.0
X81.92Y-106.5
X85.818Y-112.0
X88.318Y-112.0
X91.58Y-127.0
X92.08Y-106.5
X107.5Y-116.96
X107.5Y-119.5
X107.5Y-122.04
X107.5Y-124.5
X107.5Y-127.04
X107.5Y-129.58
T2
X76.0Y-104.0
X76.0Y-106.5
X76.0Y-109.0
X76.0Y-118.0
X76.0Y-120.5
X76.0Y-123.0
X76.0Y-125.5
T3
X95.84Y-103.96
X95.84Y-106.5
X95.84Y-109.04
X111.77Y-121.96
X111.77Y-124.5
X111.77Y-127.04
T4
X80.6Y-100.5
X80.88Y-118.0
X95.84Y-100.5
X96.12Y-118.0
T5
X95.5Y-123.5
X121.5Y-100.5
X121.5Y-105.5
X121.5Y-110.5
X121.5Y-115.0
M30
