%TF.GenerationSoftware,KiCad,Pcbnew,9.0.2*%
%TF.CreationDate,2025-12-15T12:58:43+07:00*%
%TF.ProjectId,HardwareElday,48617264-7761-4726-9545-6c6461792e6b,rev?*%
%TF.SameCoordinates,Original*%
%TF.FileFunction,Copper,L2,Bot*%
%TF.FilePolarity,Positive*%
%FSLAX46Y46*%
G04 Gerber Fmt 4.6, Leading zero omitted, Abs format (unit mm)*
G04 Created by KiCad (PCBNEW 9.0.2) date 2025-12-15 12:58:43*
%MOMM*%
%LPD*%
G01*
G04 APERTURE LIST*
G04 Aperture macros list*
%AMRoundRect*
0 Rectangle with rounded corners*
0 $1 Rounding radius*
0 $2 $3 $4 $5 $6 $7 $8 $9 X,Y pos of 4 corners*
0 Add a 4 corners polygon primitive as box body*
4,1,4,$2,$3,$4,$5,$6,$7,$8,$9,$2,$3,0*
0 Add four circle primitives for the rounded corners*
1,1,$1+$1,$2,$3*
1,1,$1+$1,$4,$5*
1,1,$1+$1,$6,$7*
1,1,$1+$1,$8,$9*
0 Add four rect primitives between the rounded corners*
20,1,$1+$1,$2,$3,$4,$5,0*
20,1,$1+$1,$4,$5,$6,$7,0*
20,1,$1+$1,$6,$7,$8,$9,0*
20,1,$1+$1,$8,$9,$2,$3,0*%
G04 Aperture macros list end*
%TA.AperFunction,ComponentPad*%
%ADD10RoundRect,0.250000X-0.725000X0.600000X-0.725000X-0.600000X0.725000X-0.600000X0.725000X0.600000X0*%
%TD*%
%TA.AperFunction,ComponentPad*%
%ADD11O,1.950000X1.700000*%
%TD*%
%TA.AperFunction,ComponentPad*%
%ADD12R,1.500000X1.500000*%
%TD*%
%TA.AperFunction,ComponentPad*%
%ADD13C,1.500000*%
%TD*%
%TA.AperFunction,ComponentPad*%
%ADD14C,1.600000*%
%TD*%
%TA.AperFunction,ComponentPad*%
%ADD15C,3.000000*%
%TD*%
%TA.AperFunction,ComponentPad*%
%ADD16R,2.000000X1.905000*%
%TD*%
%TA.AperFunction,ComponentPad*%
%ADD17O,2.000000X1.905000*%
%TD*%
%TA.AperFunction,ComponentPad*%
%ADD18RoundRect,0.250000X-0.550000X-0.550000X0.550000X-0.550000X0.550000X0.550000X-0.550000X0.550000X0*%
%TD*%
%TA.AperFunction,ComponentPad*%
%ADD19C,2.400000*%
%TD*%
%TA.AperFunction,Conductor*%
%ADD20C,1.000000*%
%TD*%
%TA.AperFunction,Conductor*%
%ADD21C,1.200000*%
%TD*%
G04 APERTURE END LIST*
D10*
%TO.P,J3,1,Pin_1*%
%TO.N,Net-(J3-Pin_1)*%
X76000000Y-104000000D03*
D11*
%TO.P,J3,2,Pin_2*%
%TO.N,Vg*%
X76000000Y-106500000D03*
%TO.P,J3,3,Pin_3*%
%TO.N,GNDREF*%
X76000000Y-109000000D03*
%TD*%
D12*
%TO.P,Q4,1,C*%
%TO.N,Net-(Q2-G)*%
X107500000Y-124500000D03*
D13*
%TO.P,Q4,2,B*%
%TO.N,Net-(Q3-B)*%
X107500000Y-127040000D03*
%TO.P,Q4,3,E*%
%TO.N,GNDREF*%
X107500000Y-129580000D03*
%TD*%
D14*
%TO.P,R4,1*%
%TO.N,Net-(J1-Pin_3)*%
X81420000Y-127000000D03*
%TO.P,R4,2*%
%TO.N,Net-(Q3-B)*%
X91580000Y-127000000D03*
%TD*%
D15*
%TO.P,TP4,1,1*%
%TO.N,Net-(Q1-G)*%
X121500000Y-105500000D03*
%TD*%
D16*
%TO.P,Q2,1,D*%
%TO.N,Net-(Q2-D)*%
X111770000Y-121960000D03*
D17*
%TO.P,Q2,2,G*%
%TO.N,Net-(Q2-G)*%
X111770000Y-124500000D03*
%TO.P,Q2,3,S*%
%TO.N,GNDREF*%
X111770000Y-127040000D03*
%TD*%
D16*
%TO.P,Q1,1,D*%
%TO.N,Net-(Q1-D)*%
X95840000Y-103960000D03*
D17*
%TO.P,Q1,2,G*%
%TO.N,Net-(Q1-G)*%
X95840000Y-106500000D03*
%TO.P,Q1,3,S*%
%TO.N,GNDREF*%
X95840000Y-109040000D03*
%TD*%
D18*
%TO.P,C1,1*%
%TO.N,Net-(J3-Pin_1)*%
X85817621Y-112000000D03*
D14*
%TO.P,C1,2*%
%TO.N,GNDREF*%
X88317621Y-112000000D03*
%TD*%
D15*
%TO.P,TP5,1,1*%
%TO.N,Net-(Q3-B)*%
X95500000Y-123500000D03*
%TD*%
D19*
%TO.P,R1,1*%
%TO.N,Net-(J3-Pin_1)*%
X80600000Y-100500000D03*
%TO.P,R1,2*%
%TO.N,Net-(Q1-D)*%
X95840000Y-100500000D03*
%TD*%
D15*
%TO.P,TP3,1,1*%
%TO.N,Net-(Q2-G)*%
X121500000Y-115000000D03*
%TD*%
D19*
%TO.P,R3,1*%
%TO.N,Vs*%
X80880000Y-118000000D03*
%TO.P,R3,2*%
%TO.N,Net-(Q2-D)*%
X96120000Y-118000000D03*
%TD*%
D10*
%TO.P,J1,1,Pin_1*%
%TO.N,Vs*%
X76000000Y-118000000D03*
D11*
%TO.P,J1,2,Pin_2*%
%TO.N,Vd*%
X76000000Y-120500000D03*
%TO.P,J1,3,Pin_3*%
%TO.N,Net-(J1-Pin_3)*%
X76000000Y-123000000D03*
%TO.P,J1,4,Pin_4*%
%TO.N,GNDREF*%
X76000000Y-125500000D03*
%TD*%
D12*
%TO.P,Q3,1,C*%
%TO.N,Vd*%
X107500000Y-116960000D03*
D13*
%TO.P,Q3,2,B*%
%TO.N,Net-(Q3-B)*%
X107500000Y-119500000D03*
%TO.P,Q3,3,E*%
%TO.N,Net-(Q2-G)*%
X107500000Y-122040000D03*
%TD*%
D15*
%TO.P,TP1,1,1*%
%TO.N,Net-(Q1-D)*%
X121500000Y-100500000D03*
%TD*%
%TO.P,TP2,1,1*%
%TO.N,Net-(Q2-D)*%
X121500000Y-110500000D03*
%TD*%
D14*
%TO.P,R2,1*%
%TO.N,Vg*%
X81920000Y-106500000D03*
%TO.P,R2,2*%
%TO.N,Net-(Q1-G)*%
X92080000Y-106500000D03*
%TD*%
D20*
%TO.N,GNDREF*%
X111770000Y-127040000D02*
X109230000Y-129580000D01*
X80080000Y-129580000D02*
X76000000Y-125500000D01*
X72500000Y-111000000D02*
X74500000Y-109000000D01*
X77500000Y-114500000D02*
X86948992Y-114500000D01*
X76000000Y-113000000D02*
X77500000Y-114500000D01*
X109230000Y-129580000D02*
X107500000Y-129580000D01*
X74500000Y-109000000D02*
X76000000Y-109000000D01*
X95840000Y-109040000D02*
X92880000Y-112000000D01*
X92880000Y-112000000D02*
X88317621Y-112000000D01*
X76000000Y-125500000D02*
X74500000Y-125500000D01*
X72500000Y-123500000D02*
X72500000Y-111000000D01*
X88317621Y-113131371D02*
X88317621Y-112000000D01*
X74500000Y-125500000D02*
X72500000Y-123500000D01*
X86948992Y-114500000D02*
X88317621Y-113131371D01*
X107500000Y-129580000D02*
X80080000Y-129580000D01*
X76000000Y-109000000D02*
X76000000Y-113000000D01*
%TO.N,Net-(Q1-G)*%
X95840000Y-106500000D02*
X99000000Y-106500000D01*
X99000000Y-106500000D02*
X103500000Y-111000000D01*
X119750000Y-105500000D02*
X121500000Y-105500000D01*
X92080000Y-106500000D02*
X95840000Y-106500000D01*
X103500000Y-111000000D02*
X114250000Y-111000000D01*
X114250000Y-111000000D02*
X119750000Y-105500000D01*
%TO.N,Net-(Q1-D)*%
X95840000Y-100500000D02*
X95840000Y-103960000D01*
X95840000Y-100500000D02*
X121500000Y-100500000D01*
%TO.N,Vd*%
X76000000Y-120500000D02*
X99000000Y-120500000D01*
X99000000Y-120500000D02*
X102540000Y-116960000D01*
X102540000Y-116960000D02*
X107500000Y-116960000D01*
%TO.N,Net-(Q3-B)*%
X101500000Y-123500000D02*
X95500000Y-123500000D01*
X93500000Y-123500000D02*
X91580000Y-125420000D01*
X107460000Y-127000000D02*
X107500000Y-127040000D01*
X95500000Y-123500000D02*
X93500000Y-123500000D01*
X107500000Y-119500000D02*
X105500000Y-119500000D01*
X105500000Y-119500000D02*
X101500000Y-123500000D01*
X91580000Y-127000000D02*
X107460000Y-127000000D01*
X91580000Y-125420000D02*
X91580000Y-127000000D01*
%TO.N,Net-(Q2-G)*%
X121500000Y-115000000D02*
X121500000Y-121000000D01*
X121500000Y-121000000D02*
X118000000Y-124500000D01*
X107500000Y-124500000D02*
X110770000Y-124500000D01*
X118000000Y-124500000D02*
X111770000Y-124500000D01*
X107500000Y-124500000D02*
X107499999Y-121911220D01*
%TO.N,Vg*%
X76000000Y-106500000D02*
X81920000Y-106500000D01*
%TO.N,Net-(Q2-D)*%
X118000000Y-114000000D02*
X113500000Y-114000000D01*
X96120000Y-118000000D02*
X96120000Y-115880000D01*
X111770000Y-115500000D02*
X112000000Y-115500000D01*
X98000000Y-114000000D02*
X109750000Y-114000000D01*
X112000000Y-115500000D02*
X113500000Y-114000000D01*
X121500000Y-110500000D02*
X118000000Y-114000000D01*
X111770000Y-115500000D02*
X111770000Y-121960000D01*
X111770000Y-114230000D02*
X111770000Y-115500000D01*
X111500000Y-115500000D02*
X110000000Y-114000000D01*
X113500000Y-114000000D02*
X109750000Y-114000000D01*
X111770000Y-115500000D02*
X111500000Y-115500000D01*
X96120000Y-115880000D02*
X98000000Y-114000000D01*
D21*
%TO.N,Vs*%
X80880000Y-118000000D02*
X76000000Y-118000000D01*
D20*
%TO.N,Net-(J3-Pin_1)*%
X83500000Y-100500000D02*
X80600000Y-100500000D01*
X85817621Y-102817621D02*
X83500000Y-100500000D01*
X79000000Y-104000000D02*
X80600000Y-102400000D01*
X76000000Y-104000000D02*
X79000000Y-104000000D01*
X85817621Y-112000000D02*
X85817621Y-102817621D01*
X80600000Y-102400000D02*
X80600000Y-100500000D01*
D21*
%TO.N,Net-(J1-Pin_3)*%
X81500000Y-124790000D02*
X79710000Y-123000000D01*
X79710000Y-123000000D02*
X76000000Y-123000000D01*
X81500000Y-126920000D02*
X81500000Y-124790000D01*
X81420000Y-127000000D02*
X81500000Y-126920000D01*
%TD*%
%TA.AperFunction,Conductor*%
%TO.N,GNDREF*%
G36*
X132442539Y-97020185D02*
G01*
X132488294Y-97072989D01*
X132499500Y-97124500D01*
X132499500Y-130875500D01*
X132479815Y-130942539D01*
X132427011Y-130988294D01*
X132375500Y-130999500D01*
X107959216Y-130999500D01*
X107892177Y-130979815D01*
X107846422Y-130927011D01*
X107836478Y-130857853D01*
X107865503Y-130794297D01*
X107920898Y-130757569D01*
X107979835Y-130738418D01*
X108155143Y-130649095D01*
X108190125Y-130623678D01*
X108190126Y-130623678D01*
X107546448Y-129980000D01*
X107552661Y-129980000D01*
X107654394Y-129952741D01*
X107745606Y-129900080D01*
X107820080Y-129825606D01*
X107872741Y-129734394D01*
X107900000Y-129632661D01*
X107900000Y-129626448D01*
X108543678Y-130270126D01*
X108543678Y-130270125D01*
X108569095Y-130235143D01*
X108658418Y-130059835D01*
X108719221Y-129872705D01*
X108750000Y-129678382D01*
X108750000Y-129481617D01*
X108719221Y-129287294D01*
X108658418Y-129100164D01*
X108569096Y-128924858D01*
X108543678Y-128889873D01*
X108543677Y-128889873D01*
X107900000Y-129533551D01*
X107900000Y-129527339D01*
X107872741Y-129425606D01*
X107820080Y-129334394D01*
X107745606Y-129259920D01*
X107654394Y-129207259D01*
X107552661Y-129180000D01*
X107546447Y-129180000D01*
X107987664Y-128738780D01*
X108043253Y-128706686D01*
X108063887Y-128701158D01*
X108241252Y-128627690D01*
X108275881Y-128613347D01*
X108275881Y-128613346D01*
X108275888Y-128613344D01*
X108474612Y-128498611D01*
X108656661Y-128358919D01*
X108656665Y-128358914D01*
X108656670Y-128358911D01*
X108818911Y-128196670D01*
X108818914Y-128196665D01*
X108818919Y-128196661D01*
X108958611Y-128014612D01*
X109073344Y-127815888D01*
X109161158Y-127603887D01*
X109220548Y-127382238D01*
X109250500Y-127154734D01*
X109250500Y-126925266D01*
X109220548Y-126697762D01*
X109161158Y-126476113D01*
X109073344Y-126264112D01*
X109068285Y-126255350D01*
X109028535Y-126186500D01*
X109012062Y-126118600D01*
X109034915Y-126052573D01*
X109089836Y-126009382D01*
X109135922Y-126000500D01*
X110427744Y-126000500D01*
X110449680Y-126006941D01*
X110472464Y-126008845D01*
X110490320Y-126018874D01*
X110494783Y-126020185D01*
X110503236Y-126026129D01*
X110510455Y-126031669D01*
X110551655Y-126088099D01*
X110555805Y-126157845D01*
X110535282Y-126202924D01*
X110480211Y-126278723D01*
X110480210Y-126278725D01*
X110376417Y-126482429D01*
X110305765Y-126699871D01*
X110291491Y-126790000D01*
X111279252Y-126790000D01*
X111257482Y-126827708D01*
X111220000Y-126967591D01*
X111220000Y-127112409D01*
X111257482Y-127252292D01*
X111279252Y-127290000D01*
X110291491Y-127290000D01*
X110305765Y-127380128D01*
X110376417Y-127597570D01*
X110480211Y-127801276D01*
X110614597Y-127986242D01*
X110776257Y-128147902D01*
X110961223Y-128282288D01*
X111164929Y-128386082D01*
X111382371Y-128456734D01*
X111520000Y-128478532D01*
X111520000Y-127530747D01*
X111557708Y-127552518D01*
X111697591Y-127590000D01*
X111842409Y-127590000D01*
X111982292Y-127552518D01*
X112020000Y-127530747D01*
X112020000Y-128478531D01*
X112157628Y-128456734D01*
X112375070Y-128386082D01*
X112578776Y-128282288D01*
X112763742Y-128147902D01*
X112925402Y-127986242D01*
X113059788Y-127801276D01*
X113163582Y-127597570D01*
X113234234Y-127380128D01*
X113248509Y-127290000D01*
X112260748Y-127290000D01*
X112282518Y-127252292D01*
X112320000Y-127112409D01*
X112320000Y-126967591D01*
X112282518Y-126827708D01*
X112260748Y-126790000D01*
X113248509Y-126790000D01*
X113234234Y-126699871D01*
X113163582Y-126482429D01*
X113059788Y-126278723D01*
X113004717Y-126202925D01*
X113002221Y-126195931D01*
X112996912Y-126190746D01*
X112990642Y-126163478D01*
X112981237Y-126137119D01*
X112982918Y-126129887D01*
X112981255Y-126122653D01*
X112990724Y-126096320D01*
X112997062Y-126069065D01*
X113002971Y-126062261D01*
X113004898Y-126056905D01*
X113029552Y-126031661D01*
X113036778Y-126026116D01*
X113101950Y-126000929D01*
X113112255Y-126000500D01*
X118118097Y-126000500D01*
X118351368Y-125963553D01*
X118415762Y-125942630D01*
X118575992Y-125890568D01*
X118786434Y-125783343D01*
X118977510Y-125644517D01*
X120253155Y-124368872D01*
X126429500Y-124368872D01*
X126429500Y-124631127D01*
X126441443Y-124721837D01*
X126463730Y-124891116D01*
X126511295Y-125068631D01*
X126531602Y-125144418D01*
X126531605Y-125144428D01*
X126631953Y-125386690D01*
X126631958Y-125386700D01*
X126763075Y-125613803D01*
X126922718Y-125821851D01*
X126922726Y-125821860D01*
X127108140Y-126007274D01*
X127108148Y-126007281D01*
X127108149Y-126007282D01*
X127132695Y-126026117D01*
X127316196Y-126166924D01*
X127543299Y-126298041D01*
X127543309Y-126298046D01*
X127728948Y-126374940D01*
X127785581Y-126398398D01*
X128038884Y-126466270D01*
X128298880Y-126500500D01*
X128298887Y-126500500D01*
X128561113Y-126500500D01*
X128561120Y-126500500D01*
X128821116Y-126466270D01*
X129074419Y-126398398D01*
X129316697Y-126298043D01*
X129543803Y-126166924D01*
X129751851Y-126007282D01*
X129751855Y-126007277D01*
X129751860Y-126007274D01*
X129937274Y-125821860D01*
X129937277Y-125821855D01*
X129937282Y-125821851D01*
X130096924Y-125613803D01*
X130228043Y-125386697D01*
X130236030Y-125367416D01*
X130257055Y-125316657D01*
X130328398Y-125144419D01*
X130396270Y-124891116D01*
X130430500Y-124631120D01*
X130430500Y-124368880D01*
X130396270Y-124108884D01*
X130328398Y-123855581D01*
X130328394Y-123855571D01*
X130228046Y-123613309D01*
X130228041Y-123613299D01*
X130096924Y-123386196D01*
X129937281Y-123178148D01*
X129937274Y-123178140D01*
X129751860Y-122992726D01*
X129751851Y-122992718D01*
X129543803Y-122833075D01*
X129316700Y-122701958D01*
X129316690Y-122701953D01*
X129074428Y-122601605D01*
X129074421Y-122601603D01*
X129074419Y-122601602D01*
X128821116Y-122533730D01*
X128763339Y-122526123D01*
X128561127Y-122499500D01*
X128561120Y-122499500D01*
X128298880Y-122499500D01*
X128298872Y-122499500D01*
X128067772Y-122529926D01*
X128038884Y-122533730D01*
X127785581Y-122601602D01*
X127785571Y-122601605D01*
X127543309Y-122701953D01*
X127543299Y-122701958D01*
X127316196Y-122833075D01*
X127108148Y-122992718D01*
X126922718Y-123178148D01*
X126763075Y-123386196D01*
X126631958Y-123613299D01*
X126631953Y-123613309D01*
X126531605Y-123855571D01*
X126531602Y-123855581D01*
X126484790Y-124030289D01*
X126463730Y-124108885D01*
X126429500Y-124368872D01*
X120253155Y-124368872D01*
X122644517Y-121977510D01*
X122783343Y-121786434D01*
X122890568Y-121575993D01*
X122923021Y-121476113D01*
X122963553Y-121351368D01*
X122977373Y-121264112D01*
X123000500Y-121118097D01*
X123000500Y-117061365D01*
X123020185Y-116994326D01*
X123047185Y-116964419D01*
X123168825Y-116867416D01*
X123367416Y-116668825D01*
X123542523Y-116449248D01*
X123691945Y-116211445D01*
X123813801Y-115958408D01*
X123906560Y-115693318D01*
X123969055Y-115419509D01*
X123969056Y-115419499D01*
X123969057Y-115419494D01*
X124000499Y-115140431D01*
X124000500Y-115140427D01*
X124000500Y-114859572D01*
X124000499Y-114859568D01*
X123969057Y-114580505D01*
X123969054Y-114580487D01*
X123906560Y-114306682D01*
X123906556Y-114306670D01*
X123883465Y-114240680D01*
X123813801Y-114041592D01*
X123691945Y-113788555D01*
X123542523Y-113550752D01*
X123367416Y-113331175D01*
X123168825Y-113132584D01*
X122949248Y-112957477D01*
X122786146Y-112854992D01*
X122739856Y-112802659D01*
X122729208Y-112733606D01*
X122757583Y-112669757D01*
X122786145Y-112645007D01*
X122949248Y-112542523D01*
X123168825Y-112367416D01*
X123367416Y-112168825D01*
X123542523Y-111949248D01*
X123691945Y-111711445D01*
X123813801Y-111458408D01*
X123906560Y-111193318D01*
X123969055Y-110919509D01*
X123972511Y-110888842D01*
X123990181Y-110732009D01*
X124000500Y-110640425D01*
X124000500Y-110359575D01*
X123988277Y-110251095D01*
X123969057Y-110080505D01*
X123969054Y-110080487D01*
X123957467Y-110029723D01*
X123906560Y-109806682D01*
X123904668Y-109801276D01*
X123871875Y-109707557D01*
X123813801Y-109541592D01*
X123691945Y-109288555D01*
X123542523Y-109050752D01*
X123367416Y-108831175D01*
X123168825Y-108632584D01*
X122949248Y-108457477D01*
X122711445Y-108308055D01*
X122711442Y-108308053D01*
X122458411Y-108186200D01*
X122260767Y-108117041D01*
X122203991Y-108076320D01*
X122178244Y-108011367D01*
X122191700Y-107942805D01*
X122240088Y-107892402D01*
X122260767Y-107882959D01*
X122336118Y-107856592D01*
X122458408Y-107813801D01*
X122711445Y-107691945D01*
X122949248Y-107542523D01*
X123168825Y-107367416D01*
X123367416Y-107168825D01*
X123542523Y-106949248D01*
X123691945Y-106711445D01*
X123813801Y-106458408D01*
X123906560Y-106193318D01*
X123969055Y-105919509D01*
X123970815Y-105903895D01*
X123993568Y-105701951D01*
X124000500Y-105640425D01*
X124000500Y-105359575D01*
X123984397Y-105216657D01*
X123969057Y-105080505D01*
X123969054Y-105080487D01*
X123943958Y-104970536D01*
X123906560Y-104806682D01*
X123902966Y-104796412D01*
X123834799Y-104601602D01*
X123813801Y-104541592D01*
X123691945Y-104288555D01*
X123542523Y-104050752D01*
X123367416Y-103831175D01*
X123168825Y-103632584D01*
X122949248Y-103457477D01*
X122711445Y-103308055D01*
X122711442Y-103308053D01*
X122458411Y-103186200D01*
X122260767Y-103117041D01*
X122203991Y-103076320D01*
X122178244Y-103011367D01*
X122191700Y-102942805D01*
X122240088Y-102892402D01*
X122260767Y-102882959D01*
X122321859Y-102861581D01*
X122458408Y-102813801D01*
X122711445Y-102691945D01*
X122949248Y-102542523D01*
X123168825Y-102367416D01*
X123367416Y-102168825D01*
X123542523Y-101949248D01*
X123691945Y-101711445D01*
X123813801Y-101458408D01*
X123906560Y-101193318D01*
X123969055Y-100919509D01*
X124000500Y-100640425D01*
X124000500Y-100359575D01*
X123969055Y-100080491D01*
X123906560Y-99806682D01*
X123813801Y-99541592D01*
X123691945Y-99288555D01*
X123542523Y-99050752D01*
X123367416Y-98831175D01*
X123168825Y-98632584D01*
X122949248Y-98457477D01*
X122785004Y-98354275D01*
X122711442Y-98308053D01*
X122458411Y-98186200D01*
X122193329Y-98093443D01*
X122193317Y-98093439D01*
X121919512Y-98030945D01*
X121919494Y-98030942D01*
X121640431Y-97999500D01*
X121640425Y-97999500D01*
X121359575Y-97999500D01*
X121359568Y-97999500D01*
X121080505Y-98030942D01*
X121080487Y-98030945D01*
X120806682Y-98093439D01*
X120806670Y-98093443D01*
X120541588Y-98186200D01*
X120288557Y-98308053D01*
X120050753Y-98457476D01*
X119831175Y-98632583D01*
X119632583Y-98831175D01*
X119535581Y-98952813D01*
X119478393Y-98992953D01*
X119438634Y-98999500D01*
X97502840Y-98999500D01*
X97435801Y-98979815D01*
X97415163Y-98963185D01*
X97294004Y-98842026D01*
X97294003Y-98842025D01*
X97294001Y-98842023D01*
X97065164Y-98666431D01*
X97065162Y-98666429D01*
X97065156Y-98666425D01*
X97065151Y-98666422D01*
X97065148Y-98666420D01*
X96815352Y-98522199D01*
X96815336Y-98522191D01*
X96548860Y-98411814D01*
X96548848Y-98411810D01*
X96548845Y-98411809D01*
X96270217Y-98337151D01*
X96270211Y-98337150D01*
X96270206Y-98337149D01*
X95984238Y-98299501D01*
X95984233Y-98299500D01*
X95984228Y-98299500D01*
X95695772Y-98299500D01*
X95695766Y-98299500D01*
X95695761Y-98299501D01*
X95409793Y-98337149D01*
X95409786Y-98337150D01*
X95409783Y-98337151D01*
X95131155Y-98411809D01*
X95131139Y-98411814D01*
X94864663Y-98522191D01*
X94864647Y-98522199D01*
X94614851Y-98666420D01*
X94614835Y-98666431D01*
X94385997Y-98842024D01*
X94385990Y-98842030D01*
X94182030Y-99045990D01*
X94182024Y-99045997D01*
X94006431Y-99274835D01*
X94006420Y-99274851D01*
X93862199Y-99524647D01*
X93862191Y-99524663D01*
X93751814Y-99791139D01*
X93751809Y-99791155D01*
X93677152Y-100069780D01*
X93677149Y-100069793D01*
X93639501Y-100355761D01*
X93639500Y-100355778D01*
X93639500Y-100644221D01*
X93639501Y-100644238D01*
X93677149Y-100930206D01*
X93677150Y-100930211D01*
X93677151Y-100930217D01*
X93747649Y-101193318D01*
X93751809Y-101208844D01*
X93751814Y-101208860D01*
X93862191Y-101475336D01*
X93862199Y-101475352D01*
X94006420Y-101725148D01*
X94006431Y-101725164D01*
X94182023Y-101954001D01*
X94182025Y-101954003D01*
X94182026Y-101954004D01*
X94249713Y-102021691D01*
X94283197Y-102083012D01*
X94278213Y-102152704D01*
X94240392Y-102205473D01*
X94128890Y-102296390D01*
X94000304Y-102454090D01*
X94000302Y-102454093D01*
X93966872Y-102518092D01*
X93906089Y-102634454D01*
X93850114Y-102830083D01*
X93850113Y-102830086D01*
X93839500Y-102949466D01*
X93839500Y-102949468D01*
X93839501Y-104875500D01*
X93819816Y-104942539D01*
X93767013Y-104988294D01*
X93715501Y-104999500D01*
X93115283Y-104999500D01*
X93053283Y-104982887D01*
X92878056Y-104881719D01*
X92878045Y-104881714D01*
X92659993Y-104791394D01*
X92432010Y-104730306D01*
X92198020Y-104699501D01*
X92198017Y-104699500D01*
X92198011Y-104699500D01*
X91961989Y-104699500D01*
X91961983Y-104699500D01*
X91961979Y-104699501D01*
X91727989Y-104730306D01*
X91500006Y-104791394D01*
X91281954Y-104881714D01*
X91281943Y-104881719D01*
X91077545Y-104999730D01*
X90890302Y-105143406D01*
X90890295Y-105143412D01*
X90723412Y-105310295D01*
X90723406Y-105310302D01*
X90579730Y-105497545D01*
X90461719Y-105701943D01*
X90461714Y-105701954D01*
X90371394Y-105920006D01*
X90310306Y-106147989D01*
X90279501Y-106381979D01*
X90279500Y-106381995D01*
X90279500Y-106618004D01*
X90279501Y-106618020D01*
X90310306Y-106852010D01*
X90371394Y-107079993D01*
X90461714Y-107298045D01*
X90461719Y-107298056D01*
X90532677Y-107420957D01*
X90579727Y-107502450D01*
X90579729Y-107502453D01*
X90579730Y-107502454D01*
X90723406Y-107689697D01*
X90723412Y-107689704D01*
X90890295Y-107856587D01*
X90890302Y-107856593D01*
X90939391Y-107894260D01*
X91077550Y-108000273D01*
X91187106Y-108063525D01*
X91281943Y-108118280D01*
X91281948Y-108118282D01*
X91281951Y-108118284D01*
X91500007Y-108208606D01*
X91727986Y-108269693D01*
X91961989Y-108300500D01*
X91961996Y-108300500D01*
X92198004Y-108300500D01*
X92198011Y-108300500D01*
X92432014Y-108269693D01*
X92659993Y-108208606D01*
X92878049Y-108118284D01*
X92963299Y-108069065D01*
X93053283Y-108017113D01*
X93115283Y-108000500D01*
X94497744Y-108000500D01*
X94519680Y-108006941D01*
X94542464Y-108008845D01*
X94560320Y-108018874D01*
X94564783Y-108020185D01*
X94573236Y-108026129D01*
X94580455Y-108031669D01*
X94621655Y-108088099D01*
X94625805Y-108157845D01*
X94605282Y-108202924D01*
X94550211Y-108278723D01*
X94550210Y-108278725D01*
X94446417Y-108482429D01*
X94375765Y-108699871D01*
X94361491Y-108790000D01*
X95349252Y-108790000D01*
X95327482Y-108827708D01*
X95290000Y-108967591D01*
X95290000Y-109112409D01*
X95327482Y-109252292D01*
X95349252Y-109290000D01*
X94361491Y-109290000D01*
X94375765Y-109380128D01*
X94446417Y-109597570D01*
X94550211Y-109801276D01*
X94684597Y-109986242D01*
X94846257Y-110147902D01*
X95031223Y-110282288D01*
X95234929Y-110386082D01*
X95452371Y-110456734D01*
X95590000Y-110478532D01*
X95590000Y-109530747D01*
X95627708Y-109552518D01*
X95767591Y-109590000D01*
X95912409Y-109590000D01*
X96052292Y-109552518D01*
X96090000Y-109530747D01*
X96090000Y-110478531D01*
X96227628Y-110456734D01*
X96445070Y-110386082D01*
X96648776Y-110282288D01*
X96833742Y-110147902D01*
X96995402Y-109986242D01*
X97129788Y-109801276D01*
X97233582Y-109597570D01*
X97304234Y-109380128D01*
X97318509Y-109290000D01*
X96330748Y-109290000D01*
X96352518Y-109252292D01*
X96390000Y-109112409D01*
X96390000Y-108967591D01*
X96352518Y-108827708D01*
X96330748Y-108790000D01*
X97318509Y-108790000D01*
X97304234Y-108699871D01*
X97233582Y-108482429D01*
X97129788Y-108278723D01*
X97074717Y-108202925D01*
X97072221Y-108195931D01*
X97066912Y-108190746D01*
X97060642Y-108163478D01*
X97051237Y-108137119D01*
X97052918Y-108129887D01*
X97051255Y-108122653D01*
X97060724Y-108096320D01*
X97067062Y-108069065D01*
X97072971Y-108062261D01*
X97074898Y-108056905D01*
X97099552Y-108031661D01*
X97106778Y-108026116D01*
X97171950Y-108000929D01*
X97182255Y-108000500D01*
X98327111Y-108000500D01*
X98394150Y-108020185D01*
X98414792Y-108036819D01*
X102522490Y-112144517D01*
X102702334Y-112275182D01*
X102744999Y-112330512D01*
X102750978Y-112400126D01*
X102718372Y-112461921D01*
X102657533Y-112496278D01*
X102629448Y-112499500D01*
X97881903Y-112499500D01*
X97648630Y-112536447D01*
X97496993Y-112585716D01*
X97496992Y-112585717D01*
X97424007Y-112609432D01*
X97424001Y-112609434D01*
X97213565Y-112716657D01*
X97022488Y-112855484D01*
X94975484Y-114902488D01*
X94836657Y-115093565D01*
X94772178Y-115220114D01*
X94729433Y-115304003D01*
X94656446Y-115528631D01*
X94619500Y-115761902D01*
X94619500Y-116337159D01*
X94599815Y-116404198D01*
X94583181Y-116424840D01*
X94462030Y-116545990D01*
X94462024Y-116545997D01*
X94286431Y-116774835D01*
X94286420Y-116774851D01*
X94142199Y-117024647D01*
X94142191Y-117024663D01*
X94031814Y-117291139D01*
X94031809Y-117291155D01*
X93957152Y-117569780D01*
X93957149Y-117569793D01*
X93919501Y-117855761D01*
X93919500Y-117855778D01*
X93919500Y-118144221D01*
X93919501Y-118144238D01*
X93957149Y-118430206D01*
X93957150Y-118430211D01*
X93957151Y-118430217D01*
X94019849Y-118664208D01*
X94031809Y-118708844D01*
X94031814Y-118708860D01*
X94081183Y-118828048D01*
X94088652Y-118897517D01*
X94057376Y-118959996D01*
X93997287Y-118995648D01*
X93966622Y-118999500D01*
X83033378Y-118999500D01*
X82966339Y-118979815D01*
X82920584Y-118927011D01*
X82910640Y-118857853D01*
X82918817Y-118828048D01*
X82968185Y-118708860D01*
X82968185Y-118708857D01*
X82968191Y-118708845D01*
X83042849Y-118430217D01*
X83080500Y-118144228D01*
X83080500Y-117855772D01*
X83042849Y-117569783D01*
X82968191Y-117291155D01*
X82968186Y-117291145D01*
X82968185Y-117291139D01*
X82857808Y-117024663D01*
X82857800Y-117024647D01*
X82713579Y-116774851D01*
X82713575Y-116774844D01*
X82575842Y-116595346D01*
X82537975Y-116545997D01*
X82537969Y-116545990D01*
X82334009Y-116342030D01*
X82334002Y-116342024D01*
X82105164Y-116166431D01*
X82105162Y-116166429D01*
X82105156Y-116166425D01*
X82105151Y-116166422D01*
X82105148Y-116166420D01*
X81855352Y-116022199D01*
X81855336Y-116022191D01*
X81588860Y-115911814D01*
X81588848Y-115911810D01*
X81588845Y-115911809D01*
X81310217Y-115837151D01*
X81310211Y-115837150D01*
X81310206Y-115837149D01*
X81024238Y-115799501D01*
X81024233Y-115799500D01*
X81024228Y-115799500D01*
X80735772Y-115799500D01*
X80735766Y-115799500D01*
X80735761Y-115799501D01*
X80449793Y-115837149D01*
X80449786Y-115837150D01*
X80449783Y-115837151D01*
X80171155Y-115911809D01*
X80171139Y-115911814D01*
X79904663Y-116022191D01*
X79904647Y-116022199D01*
X79654851Y-116166420D01*
X79654835Y-116166431D01*
X79425997Y-116342024D01*
X79425990Y-116342030D01*
X79404840Y-116363181D01*
X79343517Y-116396666D01*
X79317159Y-116399500D01*
X77515465Y-116399500D01*
X77448426Y-116379815D01*
X77444877Y-116377447D01*
X77392737Y-116341324D01*
X77344627Y-116307993D01*
X77139681Y-116214903D01*
X77139678Y-116214902D01*
X76921420Y-116159905D01*
X76921413Y-116159904D01*
X76877347Y-116156436D01*
X76789217Y-116149500D01*
X76789215Y-116149500D01*
X75210791Y-116149500D01*
X75210776Y-116149501D01*
X75078586Y-116159904D01*
X75078579Y-116159905D01*
X74860321Y-116214902D01*
X74860318Y-116214903D01*
X74655377Y-116307991D01*
X74655367Y-116307997D01*
X74470354Y-116436174D01*
X74470342Y-116436184D01*
X74311184Y-116595342D01*
X74311174Y-116595354D01*
X74182997Y-116780367D01*
X74182991Y-116780377D01*
X74089903Y-116985318D01*
X74089902Y-116985321D01*
X74034905Y-117203579D01*
X74034904Y-117203586D01*
X74024500Y-117335777D01*
X74024500Y-118664208D01*
X74024501Y-118664223D01*
X74034904Y-118796413D01*
X74034905Y-118796420D01*
X74089902Y-119014678D01*
X74089903Y-119014681D01*
X74182991Y-119219622D01*
X74182997Y-119219632D01*
X74298863Y-119386876D01*
X74320860Y-119453193D01*
X74304322Y-119519492D01*
X74211777Y-119679784D01*
X74211773Y-119679794D01*
X74118947Y-119903895D01*
X74056161Y-120138214D01*
X74024500Y-120378711D01*
X74024500Y-120621288D01*
X74056161Y-120861785D01*
X74118947Y-121096104D01*
X74188543Y-121264123D01*
X74211776Y-121320212D01*
X74333064Y-121530289D01*
X74333066Y-121530292D01*
X74333067Y-121530293D01*
X74443731Y-121674514D01*
X74468925Y-121739683D01*
X74454887Y-121808128D01*
X74443731Y-121825486D01*
X74333067Y-121969706D01*
X74333064Y-121969710D01*
X74333064Y-121969711D01*
X74317502Y-121996666D01*
X74211777Y-122179785D01*
X74211773Y-122179794D01*
X74118947Y-122403895D01*
X74056161Y-122638214D01*
X74024500Y-122878711D01*
X74024500Y-123121288D01*
X74031984Y-123178140D01*
X74056162Y-123361789D01*
X74062702Y-123386196D01*
X74118947Y-123596104D01*
X74211773Y-123820205D01*
X74211776Y-123820212D01*
X74333064Y-124030289D01*
X74333066Y-124030292D01*
X74333067Y-124030293D01*
X74480733Y-124222736D01*
X74480739Y-124222743D01*
X74652256Y-124394260D01*
X74652263Y-124394266D01*
X74785905Y-124496813D01*
X74827108Y-124553241D01*
X74831263Y-124622987D01*
X74810737Y-124668074D01*
X74720379Y-124792442D01*
X74623904Y-124981782D01*
X74558242Y-125183870D01*
X74558242Y-125183873D01*
X74547769Y-125250000D01*
X75595854Y-125250000D01*
X75557370Y-125316657D01*
X75525000Y-125437465D01*
X75525000Y-125562535D01*
X75557370Y-125683343D01*
X75595854Y-125750000D01*
X74547769Y-125750000D01*
X74558242Y-125816126D01*
X74558242Y-125816129D01*
X74623904Y-126018217D01*
X74720379Y-126207557D01*
X74845272Y-126379459D01*
X74845276Y-126379464D01*
X74995535Y-126529723D01*
X74995540Y-126529727D01*
X75167442Y-126654620D01*
X75356782Y-126751095D01*
X75558872Y-126816757D01*
X75750000Y-126847029D01*
X75750000Y-125904145D01*
X75816657Y-125942630D01*
X75937465Y-125975000D01*
X76062535Y-125975000D01*
X76183343Y-125942630D01*
X76250000Y-125904145D01*
X76250000Y-126847028D01*
X76441127Y-126816757D01*
X76643217Y-126751095D01*
X76832557Y-126654620D01*
X77004459Y-126529727D01*
X77004464Y-126529723D01*
X77154723Y-126379464D01*
X77154727Y-126379459D01*
X77279620Y-126207557D01*
X77376095Y-126018217D01*
X77441757Y-125816129D01*
X77441757Y-125816126D01*
X77452231Y-125750000D01*
X76404146Y-125750000D01*
X76442630Y-125683343D01*
X76475000Y-125562535D01*
X76475000Y-125437465D01*
X76442630Y-125316657D01*
X76404146Y-125250000D01*
X77452231Y-125250000D01*
X77441757Y-125183873D01*
X77441757Y-125183870D01*
X77376095Y-124981782D01*
X77279620Y-124792440D01*
X77277686Y-124789284D01*
X77259446Y-124721837D01*
X77280565Y-124655236D01*
X77334340Y-124610625D01*
X77383417Y-124600500D01*
X78995689Y-124600500D01*
X79062728Y-124620185D01*
X79083370Y-124636819D01*
X79863181Y-125416630D01*
X79896666Y-125477953D01*
X79899500Y-125504311D01*
X79899500Y-125999358D01*
X79882887Y-126061358D01*
X79801719Y-126201943D01*
X79801714Y-126201954D01*
X79711394Y-126420006D01*
X79650306Y-126647989D01*
X79619501Y-126881979D01*
X79619500Y-126881995D01*
X79619500Y-127118004D01*
X79619501Y-127118020D01*
X79650306Y-127352010D01*
X79711394Y-127579993D01*
X79801714Y-127798045D01*
X79801719Y-127798056D01*
X79872677Y-127920957D01*
X79919727Y-128002450D01*
X79919729Y-128002453D01*
X79919730Y-128002454D01*
X80063406Y-128189697D01*
X80063412Y-128189704D01*
X80230295Y-128356587D01*
X80230302Y-128356593D01*
X80268733Y-128386082D01*
X80417550Y-128500273D01*
X80548918Y-128576118D01*
X80621943Y-128618280D01*
X80621948Y-128618282D01*
X80621951Y-128618284D01*
X80840007Y-128708606D01*
X81067986Y-128769693D01*
X81301989Y-128800500D01*
X81301996Y-128800500D01*
X81538004Y-128800500D01*
X81538011Y-128800500D01*
X81772014Y-128769693D01*
X81999993Y-128708606D01*
X82218049Y-128618284D01*
X82422450Y-128500273D01*
X82609699Y-128356592D01*
X82776592Y-128189699D01*
X82920273Y-128002450D01*
X83038284Y-127798049D01*
X83128606Y-127579993D01*
X83189693Y-127352014D01*
X83220500Y-127118011D01*
X83220500Y-126881989D01*
X83189693Y-126647986D01*
X83128606Y-126420007D01*
X83111813Y-126379464D01*
X83109939Y-126374940D01*
X83100500Y-126327487D01*
X83100500Y-124664038D01*
X83082951Y-124553241D01*
X83061090Y-124415215D01*
X82983241Y-124175621D01*
X82983239Y-124175618D01*
X82983239Y-124175616D01*
X82941747Y-124094184D01*
X82868870Y-123951155D01*
X82799432Y-123855581D01*
X82720798Y-123747350D01*
X82720794Y-123747345D01*
X81185630Y-122212181D01*
X81152145Y-122150858D01*
X81157129Y-122081166D01*
X81199001Y-122025233D01*
X81264465Y-122000816D01*
X81273311Y-122000500D01*
X92629448Y-122000500D01*
X92696487Y-122020185D01*
X92742242Y-122072989D01*
X92752186Y-122142147D01*
X92723161Y-122205703D01*
X92702336Y-122224816D01*
X92522490Y-122355483D01*
X92522488Y-122355485D01*
X92522487Y-122355485D01*
X90435484Y-124442488D01*
X90296656Y-124633567D01*
X90281547Y-124663222D01*
X90281546Y-124663224D01*
X90189433Y-124844003D01*
X90116446Y-125068631D01*
X90079500Y-125301902D01*
X90079500Y-125964717D01*
X90062887Y-126026717D01*
X89961719Y-126201943D01*
X89961714Y-126201954D01*
X89871394Y-126420006D01*
X89810306Y-126647989D01*
X89779501Y-126881979D01*
X89779500Y-126881995D01*
X89779500Y-127118004D01*
X89779501Y-127118020D01*
X89810306Y-127352010D01*
X89871394Y-127579993D01*
X89961714Y-127798045D01*
X89961719Y-127798056D01*
X90032677Y-127920957D01*
X90079727Y-128002450D01*
X90079729Y-128002453D01*
X90079730Y-128002454D01*
X90223406Y-128189697D01*
X90223412Y-128189704D01*
X90390295Y-128356587D01*
X90390302Y-128356593D01*
X90428733Y-128386082D01*
X90577550Y-128500273D01*
X90708918Y-128576118D01*
X90781943Y-128618280D01*
X90781948Y-128618282D01*
X90781951Y-128618284D01*
X91000007Y-128708606D01*
X91227986Y-128769693D01*
X91461989Y-128800500D01*
X91461996Y-128800500D01*
X91698004Y-128800500D01*
X91698011Y-128800500D01*
X91932014Y-128769693D01*
X92159993Y-128708606D01*
X92378049Y-128618284D01*
X92386609Y-128613342D01*
X92553283Y-128517113D01*
X92615283Y-128500500D01*
X106495435Y-128500500D01*
X106557434Y-128517112D01*
X106724112Y-128613344D01*
X106724114Y-128613344D01*
X106724118Y-128613347D01*
X106901477Y-128686811D01*
X106936113Y-128701158D01*
X106956743Y-128706685D01*
X107012334Y-128738780D01*
X107453554Y-129180000D01*
X107447339Y-129180000D01*
X107345606Y-129207259D01*
X107254394Y-129259920D01*
X107179920Y-129334394D01*
X107127259Y-129425606D01*
X107100000Y-129527339D01*
X107100000Y-129533552D01*
X106456320Y-128889872D01*
X106456320Y-128889873D01*
X106430902Y-128924859D01*
X106430899Y-128924863D01*
X106341582Y-129100161D01*
X106280778Y-129287294D01*
X106250000Y-129481617D01*
X106250000Y-129678382D01*
X106280778Y-129872705D01*
X106341581Y-130059835D01*
X106430905Y-130235145D01*
X106456319Y-130270125D01*
X106456320Y-130270125D01*
X107100000Y-129626445D01*
X107100000Y-129632661D01*
X107127259Y-129734394D01*
X107179920Y-129825606D01*
X107254394Y-129900080D01*
X107345606Y-129952741D01*
X107447339Y-129980000D01*
X107453553Y-129980000D01*
X106809873Y-130623677D01*
X106809873Y-130623678D01*
X106844858Y-130649096D01*
X107020164Y-130738418D01*
X107079102Y-130757569D01*
X107136778Y-130797007D01*
X107163976Y-130861365D01*
X107152061Y-130930212D01*
X107104817Y-130981687D01*
X107040784Y-130999500D01*
X70624500Y-130999500D01*
X70557461Y-130979815D01*
X70511706Y-130927011D01*
X70500500Y-130875500D01*
X70500500Y-103335777D01*
X74024500Y-103335777D01*
X74024500Y-104664208D01*
X74024501Y-104664223D01*
X74034904Y-104796413D01*
X74034905Y-104796420D01*
X74089902Y-105014678D01*
X74089903Y-105014681D01*
X74182991Y-105219622D01*
X74182997Y-105219632D01*
X74298863Y-105386876D01*
X74320860Y-105453193D01*
X74304322Y-105519492D01*
X74211777Y-105679784D01*
X74211773Y-105679794D01*
X74118947Y-105903895D01*
X74056161Y-106138214D01*
X74024500Y-106378711D01*
X74024500Y-106621288D01*
X74056161Y-106861785D01*
X74118947Y-107096104D01*
X74202594Y-107298045D01*
X74211776Y-107320212D01*
X74333064Y-107530289D01*
X74333066Y-107530292D01*
X74333067Y-107530293D01*
X74480733Y-107722736D01*
X74480739Y-107722743D01*
X74652256Y-107894260D01*
X74652263Y-107894266D01*
X74785905Y-107996813D01*
X74827108Y-108053241D01*
X74831263Y-108122987D01*
X74810737Y-108168074D01*
X74720379Y-108292442D01*
X74623904Y-108481782D01*
X74558242Y-108683870D01*
X74558242Y-108683873D01*
X74547769Y-108750000D01*
X75595854Y-108750000D01*
X75557370Y-108816657D01*
X75525000Y-108937465D01*
X75525000Y-109062535D01*
X75557370Y-109183343D01*
X75595854Y-109250000D01*
X74547769Y-109250000D01*
X74558242Y-109316126D01*
X74558242Y-109316129D01*
X74623904Y-109518217D01*
X74720379Y-109707557D01*
X74845272Y-109879459D01*
X74845276Y-109879464D01*
X74995535Y-110029723D01*
X74995540Y-110029727D01*
X75167442Y-110154620D01*
X75356782Y-110251095D01*
X75558872Y-110316757D01*
X75750000Y-110347029D01*
X75750000Y-109404145D01*
X75816657Y-109442630D01*
X75937465Y-109475000D01*
X76062535Y-109475000D01*
X76183343Y-109442630D01*
X76250000Y-109404145D01*
X76250000Y-110347028D01*
X76441127Y-110316757D01*
X76643217Y-110251095D01*
X76832557Y-110154620D01*
X77004459Y-110029727D01*
X77004464Y-110029723D01*
X77154723Y-109879464D01*
X77154727Y-109879459D01*
X77279620Y-109707557D01*
X77376095Y-109518217D01*
X77441757Y-109316129D01*
X77441757Y-109316126D01*
X77452231Y-109250000D01*
X76404146Y-109250000D01*
X76442630Y-109183343D01*
X76475000Y-109062535D01*
X76475000Y-108937465D01*
X76442630Y-108816657D01*
X76404146Y-108750000D01*
X77452231Y-108750000D01*
X77441757Y-108683873D01*
X77441757Y-108683870D01*
X77376095Y-108481782D01*
X77279620Y-108292442D01*
X77210558Y-108197385D01*
X77187078Y-108131579D01*
X77202904Y-108063525D01*
X77253009Y-108014830D01*
X77310876Y-108000500D01*
X80884717Y-108000500D01*
X80946717Y-108017113D01*
X81121943Y-108118280D01*
X81121948Y-108118282D01*
X81121951Y-108118284D01*
X81340007Y-108208606D01*
X81567986Y-108269693D01*
X81801989Y-108300500D01*
X81801996Y-108300500D01*
X82038004Y-108300500D01*
X82038011Y-108300500D01*
X82272014Y-108269693D01*
X82499993Y-108208606D01*
X82718049Y-108118284D01*
X82922450Y-108000273D01*
X83109699Y-107856592D01*
X83276592Y-107689699D01*
X83420273Y-107502450D01*
X83538284Y-107298049D01*
X83628606Y-107079993D01*
X83689693Y-106852014D01*
X83720500Y-106618011D01*
X83720500Y-106381989D01*
X83689693Y-106147986D01*
X83628606Y-105920007D01*
X83538284Y-105701951D01*
X83538282Y-105701948D01*
X83538280Y-105701943D01*
X83496118Y-105628918D01*
X83420273Y-105497550D01*
X83361001Y-105420306D01*
X83276593Y-105310302D01*
X83276587Y-105310295D01*
X83109704Y-105143412D01*
X83109697Y-105143406D01*
X82922454Y-104999730D01*
X82922453Y-104999729D01*
X82922450Y-104999727D01*
X82823398Y-104942539D01*
X82718056Y-104881719D01*
X82718045Y-104881714D01*
X82499993Y-104791394D01*
X82272010Y-104730306D01*
X82038020Y-104699501D01*
X82038017Y-104699500D01*
X82038011Y-104699500D01*
X81801989Y-104699500D01*
X81801983Y-104699500D01*
X81801979Y-104699501D01*
X81567989Y-104730306D01*
X81340006Y-104791394D01*
X81121954Y-104881714D01*
X81121943Y-104881719D01*
X80946717Y-104982887D01*
X80884717Y-104999500D01*
X80421889Y-104999500D01*
X80354850Y-104979815D01*
X80309095Y-104927011D01*
X80299151Y-104857853D01*
X80328176Y-104794297D01*
X80334208Y-104787819D01*
X80905370Y-104216657D01*
X81744518Y-103377510D01*
X81883343Y-103186433D01*
X81990568Y-102975992D01*
X82063553Y-102751368D01*
X82100500Y-102518097D01*
X82100500Y-102162840D01*
X82109144Y-102133399D01*
X82115668Y-102103413D01*
X82119422Y-102098397D01*
X82120185Y-102095801D01*
X82136819Y-102075159D01*
X82175159Y-102036819D01*
X82236482Y-102003334D01*
X82262840Y-102000500D01*
X82827111Y-102000500D01*
X82894150Y-102020185D01*
X82914792Y-102036819D01*
X84280802Y-103402829D01*
X84314287Y-103464152D01*
X84317121Y-103490510D01*
X84317121Y-110587363D01*
X84297436Y-110654402D01*
X84295049Y-110657979D01*
X84175618Y-110830367D01*
X84175612Y-110830377D01*
X84082524Y-111035318D01*
X84082523Y-111035321D01*
X84027526Y-111253579D01*
X84027525Y-111253586D01*
X84017121Y-111385777D01*
X84017121Y-112614208D01*
X84017122Y-112614223D01*
X84027525Y-112746413D01*
X84027526Y-112746420D01*
X84082523Y-112964678D01*
X84082524Y-112964681D01*
X84175612Y-113169622D01*
X84175618Y-113169632D01*
X84303795Y-113354645D01*
X84303799Y-113354650D01*
X84303802Y-113354654D01*
X84462967Y-113513819D01*
X84462971Y-113513822D01*
X84462975Y-113513825D01*
X84516278Y-113550753D01*
X84647995Y-113642007D01*
X84852938Y-113735096D01*
X84852942Y-113735097D01*
X85071200Y-113790094D01*
X85071202Y-113790094D01*
X85071209Y-113790096D01*
X85203404Y-113800500D01*
X86431837Y-113800499D01*
X86564033Y-113790096D01*
X86782304Y-113735096D01*
X86987247Y-113642007D01*
X87172275Y-113513819D01*
X87331440Y-113354654D01*
X87459628Y-113169626D01*
X87460579Y-113167530D01*
X87461270Y-113166730D01*
X87462373Y-113164787D01*
X87462758Y-113165005D01*
X87506222Y-113114635D01*
X87573220Y-113094810D01*
X87631191Y-113111100D01*
X87631932Y-113109648D01*
X87818589Y-113204755D01*
X88013203Y-113267990D01*
X88215304Y-113300000D01*
X88419938Y-113300000D01*
X88622038Y-113267990D01*
X88816652Y-113204755D01*
X88998970Y-113111859D01*
X89043542Y-113079474D01*
X88364068Y-112400000D01*
X88370282Y-112400000D01*
X88472015Y-112372741D01*
X88563227Y-112320080D01*
X88637701Y-112245606D01*
X88690362Y-112154394D01*
X88717621Y-112052661D01*
X88717621Y-112046447D01*
X89397095Y-112725921D01*
X89429480Y-112681349D01*
X89522376Y-112499031D01*
X89585611Y-112304417D01*
X89617621Y-112102317D01*
X89617621Y-111897682D01*
X89585611Y-111695582D01*
X89522376Y-111500968D01*
X89429480Y-111318650D01*
X89397095Y-111274077D01*
X89397095Y-111274076D01*
X88717621Y-111953551D01*
X88717621Y-111947339D01*
X88690362Y-111845606D01*
X88637701Y-111754394D01*
X88563227Y-111679920D01*
X88472015Y-111627259D01*
X88370282Y-111600000D01*
X88364067Y-111600000D01*
X89043543Y-110920524D01*
X89043542Y-110920523D01*
X88998980Y-110888147D01*
X88998971Y-110888141D01*
X88816652Y-110795244D01*
X88622038Y-110732009D01*
X88419938Y-110700000D01*
X88215304Y-110700000D01*
X88013203Y-110732009D01*
X87818589Y-110795244D01*
X87631932Y-110890352D01*
X87631163Y-110888842D01*
X87570805Y-110905160D01*
X87504206Y-110884035D01*
X87470831Y-110850755D01*
X87464931Y-110842049D01*
X87459628Y-110830374D01*
X87339843Y-110657476D01*
X87339473Y-110656929D01*
X87328987Y-110624196D01*
X87318196Y-110591662D01*
X87318174Y-110590442D01*
X87318158Y-110590390D01*
X87318172Y-110590334D01*
X87318121Y-110587363D01*
X87318121Y-102699523D01*
X87281174Y-102466252D01*
X87267226Y-102423326D01*
X87208189Y-102241629D01*
X87165565Y-102157974D01*
X87100964Y-102031187D01*
X86962138Y-101840111D01*
X84477510Y-99355483D01*
X84286434Y-99216657D01*
X84075996Y-99109433D01*
X83851368Y-99036446D01*
X83618097Y-98999500D01*
X83618092Y-98999500D01*
X82262840Y-98999500D01*
X82195801Y-98979815D01*
X82175163Y-98963185D01*
X82054004Y-98842026D01*
X82054003Y-98842025D01*
X82054001Y-98842023D01*
X81825164Y-98666431D01*
X81825162Y-98666429D01*
X81825156Y-98666425D01*
X81825151Y-98666422D01*
X81825148Y-98666420D01*
X81575352Y-98522199D01*
X81575336Y-98522191D01*
X81308860Y-98411814D01*
X81308848Y-98411810D01*
X81308845Y-98411809D01*
X81030217Y-98337151D01*
X81030211Y-98337150D01*
X81030206Y-98337149D01*
X80744238Y-98299501D01*
X80744233Y-98299500D01*
X80744228Y-98299500D01*
X80455772Y-98299500D01*
X80455766Y-98299500D01*
X80455761Y-98299501D01*
X80169793Y-98337149D01*
X80169786Y-98337150D01*
X80169783Y-98337151D01*
X79891155Y-98411809D01*
X79891139Y-98411814D01*
X79624663Y-98522191D01*
X79624647Y-98522199D01*
X79374851Y-98666420D01*
X79374835Y-98666431D01*
X79145997Y-98842024D01*
X79145990Y-98842030D01*
X78942030Y-99045990D01*
X78942024Y-99045997D01*
X78766431Y-99274835D01*
X78766420Y-99274851D01*
X78622199Y-99524647D01*
X78622191Y-99524663D01*
X78511814Y-99791139D01*
X78511809Y-99791155D01*
X78437152Y-100069780D01*
X78437149Y-100069793D01*
X78399501Y-100355761D01*
X78399500Y-100355778D01*
X78399500Y-100644221D01*
X78399501Y-100644238D01*
X78437149Y-100930206D01*
X78437150Y-100930211D01*
X78437151Y-100930217D01*
X78507649Y-101193318D01*
X78511809Y-101208844D01*
X78511814Y-101208860D01*
X78622191Y-101475336D01*
X78622199Y-101475352D01*
X78766420Y-101725148D01*
X78766431Y-101725164D01*
X78867985Y-101857513D01*
X78893179Y-101922682D01*
X78879140Y-101991127D01*
X78857291Y-102020680D01*
X78782171Y-102095801D01*
X78414790Y-102463182D01*
X78353470Y-102496666D01*
X78327111Y-102499500D01*
X77644335Y-102499500D01*
X77577296Y-102479815D01*
X77556654Y-102463181D01*
X77529657Y-102436184D01*
X77529654Y-102436181D01*
X77529650Y-102436178D01*
X77529645Y-102436174D01*
X77344632Y-102307997D01*
X77344630Y-102307995D01*
X77344626Y-102307993D01*
X77319083Y-102296391D01*
X77139681Y-102214903D01*
X77139678Y-102214902D01*
X76921420Y-102159905D01*
X76921413Y-102159904D01*
X76877347Y-102156436D01*
X76789217Y-102149500D01*
X76789215Y-102149500D01*
X75210791Y-102149500D01*
X75210776Y-102149501D01*
X75078586Y-102159904D01*
X75078579Y-102159905D01*
X74860321Y-102214902D01*
X74860318Y-102214903D01*
X74655377Y-102307991D01*
X74655367Y-102307997D01*
X74470354Y-102436174D01*
X74470342Y-102436184D01*
X74311184Y-102595342D01*
X74311174Y-102595354D01*
X74182997Y-102780367D01*
X74182991Y-102780377D01*
X74089903Y-102985318D01*
X74089902Y-102985321D01*
X74034905Y-103203579D01*
X74034904Y-103203586D01*
X74024500Y-103335777D01*
X70500500Y-103335777D01*
X70500500Y-97124500D01*
X70520185Y-97057461D01*
X70572989Y-97011706D01*
X70624500Y-97000500D01*
X132375500Y-97000500D01*
X132442539Y-97020185D01*
G37*
%TD.AperFunction*%
%TD*%
%TA.AperFunction,Conductor*%
%TO.N,GNDREF*%
G36*
X119000000Y-104000000D02*
G01*
X113500500Y-109499500D01*
X104499500Y-109499500D01*
X101368872Y-106368872D01*
X110499500Y-106368872D01*
X110499500Y-106631127D01*
X110510075Y-106711445D01*
X110533730Y-106891116D01*
X110583267Y-107075992D01*
X110601602Y-107144418D01*
X110601605Y-107144428D01*
X110701953Y-107386690D01*
X110701958Y-107386700D01*
X110833075Y-107613803D01*
X110992718Y-107821851D01*
X110992726Y-107821860D01*
X111178140Y-108007274D01*
X111178148Y-108007281D01*
X111386196Y-108166924D01*
X111613299Y-108298041D01*
X111613309Y-108298046D01*
X111855571Y-108398394D01*
X111855581Y-108398398D01*
X112108884Y-108466270D01*
X112368880Y-108500500D01*
X112368887Y-108500500D01*
X112631113Y-108500500D01*
X112631120Y-108500500D01*
X112891116Y-108466270D01*
X113144419Y-108398398D01*
X113386697Y-108298043D01*
X113613803Y-108166924D01*
X113821851Y-108007282D01*
X113821855Y-108007277D01*
X113821860Y-108007274D01*
X114007274Y-107821860D01*
X114007277Y-107821855D01*
X114007282Y-107821851D01*
X114166924Y-107613803D01*
X114298043Y-107386697D01*
X114306030Y-107367416D01*
X114339574Y-107286433D01*
X114398398Y-107144419D01*
X114466270Y-106891116D01*
X114500500Y-106631120D01*
X114500500Y-106368880D01*
X114466270Y-106108884D01*
X114398398Y-105855581D01*
X114339574Y-105713567D01*
X114298046Y-105613309D01*
X114298041Y-105613299D01*
X114166924Y-105386196D01*
X114007281Y-105178148D01*
X114007274Y-105178140D01*
X113821860Y-104992726D01*
X113821851Y-104992718D01*
X113613803Y-104833075D01*
X113386700Y-104701958D01*
X113386690Y-104701953D01*
X113144428Y-104601605D01*
X113144421Y-104601603D01*
X113144419Y-104601602D01*
X112891116Y-104533730D01*
X112833339Y-104526123D01*
X112631127Y-104499500D01*
X112631120Y-104499500D01*
X112368880Y-104499500D01*
X112368872Y-104499500D01*
X112137772Y-104529926D01*
X112108884Y-104533730D01*
X111855581Y-104601602D01*
X111855571Y-104601605D01*
X111613309Y-104701953D01*
X111613299Y-104701958D01*
X111386196Y-104833075D01*
X111178148Y-104992718D01*
X110992718Y-105178148D01*
X110833075Y-105386196D01*
X110701958Y-105613299D01*
X110701953Y-105613309D01*
X110601605Y-105855571D01*
X110601602Y-105855581D01*
X110533730Y-106108885D01*
X110499500Y-106368872D01*
X101368872Y-106368872D01*
X100000000Y-105000000D01*
X99121254Y-105000000D01*
X99118097Y-104999500D01*
X99118092Y-104999500D01*
X98000000Y-104999500D01*
X98000000Y-102000500D01*
X119000000Y-102000500D01*
X119000000Y-104000000D01*
G37*
%TD.AperFunction*%
%TD*%
%TA.AperFunction,Conductor*%
%TO.N,GNDREF*%
G36*
X119074989Y-115612484D02*
G01*
X119093439Y-115693317D01*
X119093443Y-115693329D01*
X119186200Y-115958411D01*
X119308053Y-116211442D01*
X119308055Y-116211445D01*
X119457477Y-116449248D01*
X119632584Y-116668825D01*
X119831175Y-116867416D01*
X119952813Y-116964418D01*
X119992953Y-117021606D01*
X119999500Y-117061365D01*
X119999500Y-120327111D01*
X119979815Y-120394150D01*
X119963181Y-120414792D01*
X117414792Y-122963181D01*
X117353469Y-122996666D01*
X117327111Y-122999500D01*
X113894500Y-122999500D01*
X113827461Y-122979815D01*
X113781706Y-122927011D01*
X113770500Y-122875500D01*
X113770499Y-120949471D01*
X113770499Y-120949464D01*
X113759886Y-120830082D01*
X113703909Y-120634451D01*
X113609698Y-120454093D01*
X113548038Y-120378473D01*
X113500000Y-120319558D01*
X113500000Y-120000000D01*
X113270500Y-120000000D01*
X113270500Y-116402889D01*
X113290185Y-116335850D01*
X113306819Y-116315208D01*
X114085208Y-115536819D01*
X114146531Y-115503334D01*
X114172889Y-115500500D01*
X118118097Y-115500500D01*
X118121254Y-115500000D01*
X119000000Y-115500000D01*
X119074989Y-115612484D01*
G37*
%TD.AperFunction*%
%TD*%
%TA.AperFunction,Conductor*%
%TO.N,GNDREF*%
G36*
X101000000Y-116000000D02*
G01*
X99110135Y-118267838D01*
X98500000Y-118877973D01*
X98500000Y-115622027D01*
X98585208Y-115536819D01*
X98646531Y-115503334D01*
X98672889Y-115500500D01*
X101000000Y-115500500D01*
X101000000Y-116000000D01*
G37*
%TD.AperFunction*%
%TD*%
%TA.AperFunction,Conductor*%
%TO.N,GNDREF*%
G36*
X104185150Y-118480185D02*
G01*
X104230905Y-118532989D01*
X104240849Y-118602147D01*
X104211824Y-118665703D01*
X104205792Y-118672181D01*
X100914792Y-121963181D01*
X100853469Y-121996666D01*
X100827111Y-121999500D01*
X99870552Y-121999500D01*
X99803513Y-121979815D01*
X99757758Y-121927011D01*
X99747814Y-121857853D01*
X99776839Y-121794297D01*
X99797663Y-121775183D01*
X99977510Y-121644517D01*
X103125208Y-118496819D01*
X103186531Y-118463334D01*
X103212889Y-118460500D01*
X104118111Y-118460500D01*
X104185150Y-118480185D01*
G37*
%TD.AperFunction*%
%TD*%
%TA.AperFunction,Conductor*%
%TO.N,GNDREF*%
G36*
X105713244Y-121511295D02*
G01*
X105769177Y-121553167D01*
X105793594Y-121618631D01*
X105789686Y-121659567D01*
X105779452Y-121697762D01*
X105779452Y-121697764D01*
X105779451Y-121697770D01*
X105749500Y-121925258D01*
X105749500Y-122154741D01*
X105767118Y-122288555D01*
X105779452Y-122382238D01*
X105779453Y-122382240D01*
X105838842Y-122603887D01*
X105926650Y-122815876D01*
X105926657Y-122815890D01*
X105982886Y-122913281D01*
X105987036Y-122928769D01*
X105994476Y-122940346D01*
X105999499Y-122975281D01*
X105999499Y-123043054D01*
X105979814Y-123110093D01*
X105971601Y-123121414D01*
X105910305Y-123196587D01*
X105816089Y-123376954D01*
X105760114Y-123572583D01*
X105760113Y-123572586D01*
X105749500Y-123691966D01*
X105749500Y-125308028D01*
X105749500Y-125308031D01*
X105749501Y-125308036D01*
X105754522Y-125364521D01*
X105740852Y-125433039D01*
X105692307Y-125483290D01*
X105631010Y-125499500D01*
X97500000Y-125499500D01*
X97500000Y-125022212D01*
X97521607Y-125007047D01*
X97561366Y-125000500D01*
X101618097Y-125000500D01*
X101851368Y-124963553D01*
X101895394Y-124949248D01*
X102075992Y-124890568D01*
X102286434Y-124783343D01*
X102477510Y-124644517D01*
X105582231Y-121539794D01*
X105643552Y-121506311D01*
X105713244Y-121511295D01*
G37*
%TD.AperFunction*%
%TD*%
%TA.AperFunction,Conductor*%
%TO.N,GNDREF*%
G36*
X119500000Y-108997429D02*
G01*
X119457476Y-109050753D01*
X119308053Y-109288557D01*
X119186200Y-109541588D01*
X119093443Y-109806670D01*
X119093439Y-109806682D01*
X119030945Y-110080487D01*
X119030942Y-110080505D01*
X118999500Y-110359568D01*
X118999500Y-110640429D01*
X119016919Y-110795026D01*
X119004865Y-110863848D01*
X118981380Y-110896591D01*
X117414792Y-112463181D01*
X117353469Y-112496666D01*
X117327111Y-112499500D01*
X115120552Y-112499500D01*
X115053513Y-112479815D01*
X115007758Y-112427011D01*
X115000000Y-112373056D01*
X115000000Y-112353066D01*
X115026839Y-112294297D01*
X115047663Y-112275183D01*
X115227510Y-112144517D01*
X119500000Y-107872027D01*
X119500000Y-108997429D01*
G37*
%TD.AperFunction*%
%TD*%
M02*
